<svg width="81" height="81" viewBox="0 0 81 81" fill="none" xmlns="http://www.w3.org/2000/svg">
<g filter="url(#filter0_d_1_417)">
<path d="M51.6114 55.1294C48.3224 57.327 44.4556 58.5 40.5 58.5C35.1957 58.5 30.1086 56.3929 26.3579 52.6421C22.6071 48.8914 20.5 43.8043 20.5 38.5C20.5 34.5444 21.673 30.6776 23.8706 27.3886C26.0682 24.0996 29.1918 21.5362 32.8463 20.0224C36.5009 18.5087 40.5222 18.1126 44.4018 18.8843C48.2814 19.656 51.8451 21.5608 54.6421 24.3579C57.4392 27.1549 59.344 30.7186 60.1157 34.5982C60.8874 38.4778 60.4913 42.4992 58.9776 46.1537C57.4638 49.8082 54.9004 52.9318 51.6114 55.1294Z" fill="#854FCD" stroke="white"/>
</g>
<mask id="path-2-inside-1_1_417" fill="white">
<path d="M50.2632 31H31.7368C30.7794 31 30 31.7853 30 32.75V43.25C30 44.2147 30.7794 45 31.7368 45H50.2632C51.2206 45 52 44.2147 52 43.25V32.75C52 31.7853 51.2206 31 50.2632 31ZM50.2632 32.1667C50.2972 32.1667 50.3305 32.1703 50.3637 32.1761L41.6426 38.0343C41.3068 38.2603 40.6939 38.2603 40.3581 38.0343L31.637 32.1761C31.6695 32.1703 31.7028 32.1667 31.7376 32.1667H50.2632ZM50.2632 43.8333H31.7368C31.4177 43.8333 31.1579 43.5716 31.1579 43.25V33.2568L39.7155 39.0048C40.0759 39.2469 40.5376 39.3679 41 39.3679C41.4624 39.3679 41.9241 39.2469 42.2845 39.0048L50.8421 33.2568V43.25C50.8421 43.5716 50.5823 43.8333 50.2632 43.8333Z"/>
</mask>
<path d="M50.2632 31H31.7368C30.7794 31 30 31.7853 30 32.75V43.25C30 44.2147 30.7794 45 31.7368 45H50.2632C51.2206 45 52 44.2147 52 43.25V32.75C52 31.7853 51.2206 31 50.2632 31ZM50.2632 32.1667C50.2972 32.1667 50.3305 32.1703 50.3637 32.1761L41.6426 38.0343C41.3068 38.2603 40.6939 38.2603 40.3581 38.0343L31.637 32.1761C31.6695 32.1703 31.7028 32.1667 31.7376 32.1667H50.2632ZM50.2632 43.8333H31.7368C31.4177 43.8333 31.1579 43.5716 31.1579 43.25V33.2568L39.7155 39.0048C40.0759 39.2469 40.5376 39.3679 41 39.3679C41.4624 39.3679 41.9241 39.2469 42.2845 39.0048L50.8421 33.2568V43.25C50.8421 43.5716 50.5823 43.8333 50.2632 43.8333Z" fill="#854FCD"/>
<path d="M50.3637 32.1761L51.4789 33.8364L55.6059 31.0642L50.709 30.2062L50.3637 32.1761ZM41.6426 38.0343L40.5274 36.374L40.5258 36.3752L41.6426 38.0343ZM40.3581 38.0343L41.4749 36.3752L41.4733 36.3741L40.3581 38.0343ZM31.637 32.1761L31.2843 30.2075L26.4173 31.0793L30.5218 33.8364L31.637 32.1761ZM31.1579 33.2568L32.2731 31.5965L29.1579 29.5041V33.2568H31.1579ZM39.7155 39.0048L40.8307 37.3446L40.8306 37.3445L39.7155 39.0048ZM42.2845 39.0048L41.1694 37.3445L41.1693 37.3446L42.2845 39.0048ZM50.8421 33.2568H52.8421V29.5041L49.7269 31.5965L50.8421 33.2568ZM50.2632 29H31.7368V33H50.2632V29ZM31.7368 29C29.6606 29 28 30.695 28 32.75H32C32 32.8756 31.8982 33 31.7368 33V29ZM28 32.75V43.25H32V32.75H28ZM28 43.25C28 45.305 29.6606 47 31.7368 47V43C31.8982 43 32 43.1244 32 43.25H28ZM31.7368 47H50.2632V43H31.7368V47ZM50.2632 47C52.3394 47 54 45.305 54 43.25H50C50 43.1244 50.1018 43 50.2632 43V47ZM54 43.25V32.75H50V43.25H54ZM54 32.75C54 30.695 52.3394 29 50.2632 29V33C50.1018 33 50 32.8756 50 32.75H54ZM50.2632 34.1667C50.1539 34.1667 50.0684 34.1549 50.0185 34.1461L50.709 30.2062C50.5925 30.1858 50.4405 30.1667 50.2632 30.1667V34.1667ZM49.2486 30.5159L40.5274 36.3741L42.7578 39.6945L51.4789 33.8364L49.2486 30.5159ZM40.5258 36.3752C40.6689 36.2788 40.7883 36.2401 40.8496 36.2244C40.9152 36.2075 40.9648 36.2038 41.0004 36.2038C41.0359 36.2038 41.0855 36.2075 41.1511 36.2244C41.2124 36.2401 41.3318 36.2788 41.4749 36.3752L39.2412 39.6934C39.8349 40.093 40.4989 40.2038 41.0004 40.2038C41.5019 40.2038 42.1658 40.093 42.7595 39.6934L40.5258 36.3752ZM41.4733 36.3741L32.7522 30.5159L30.5218 33.8364L39.2429 39.6945L41.4733 36.3741ZM31.9896 34.1448C31.931 34.1553 31.8442 34.1667 31.7376 34.1667V30.1667C31.5615 30.1667 31.4081 30.1853 31.2843 30.2075L31.9896 34.1448ZM31.7376 34.1667H50.2632V30.1667H31.7376V34.1667ZM50.2632 41.8333H31.7368V45.8333H50.2632V41.8333ZM31.7368 41.8333C32.5365 41.8333 33.1579 42.4813 33.1579 43.25H29.1579C29.1579 44.6619 30.2989 45.8333 31.7368 45.8333V41.8333ZM33.1579 43.25V33.2568H29.1579V43.25H33.1579ZM30.0427 34.917L38.6003 40.665L40.8306 37.3445L32.2731 31.5965L30.0427 34.917ZM38.6003 40.665C39.3465 41.1662 40.2137 41.3679 41 41.3679V37.3679C40.9406 37.3679 40.8898 37.3598 40.8538 37.3498C40.8173 37.3397 40.8125 37.3324 40.8307 37.3446L38.6003 40.665ZM41 41.3679C41.7863 41.3679 42.6535 41.1662 43.3997 40.665L41.1693 37.3446C41.1875 37.3324 41.1827 37.3397 41.1462 37.3498C41.1102 37.3598 41.0594 37.3679 41 37.3679V41.3679ZM43.3997 40.665L51.9573 34.917L49.7269 31.5965L41.1694 37.3445L43.3997 40.665ZM48.8421 33.2568V43.25H52.8421V33.2568H48.8421ZM48.8421 43.25C48.8421 42.4813 49.4635 41.8333 50.2632 41.8333V45.8333C51.7011 45.8333 52.8421 44.6619 52.8421 43.25H48.8421Z" fill="white" mask="url(#path-2-inside-1_1_417)"/>
<defs>
<filter id="filter0_d_1_417" x="0" y="0" width="81" height="81" filterUnits="userSpaceOnUse" color-interpolation-filters="sRGB">
<feFlood flood-opacity="0" result="BackgroundImageFix"/>
<feColorMatrix in="SourceAlpha" type="matrix" values="0 0 0 0 0 0 0 0 0 0 0 0 0 0 0 0 0 0 127 0" result="hardAlpha"/>
<feOffset dy="2"/>
<feGaussianBlur stdDeviation="10"/>
<feColorMatrix type="matrix" values="0 0 0 0 0 0 0 0 0 0 0 0 0 0 0 0 0 0 0.102 0"/>
<feBlend mode="normal" in2="BackgroundImageFix" result="effect1_dropShadow_1_417"/>
<feBlend mode="normal" in="SourceGraphic" in2="effect1_dropShadow_1_417" result="shape"/>
</filter>
</defs>
</svg>
