<svg width="68" height="72" viewBox="0 0 68 72" fill="none" xmlns="http://www.w3.org/2000/svg">
<path d="M27.0355 59C27.0355 59 26.4619 64.6544 22 65.0454C26.4619 65.4367 27.0355 71.0909 27.0355 71.0909C27.0355 71.0909 27.6091 65.4365 32.071 65.0454C27.6088 64.6544 27.0355 59 27.0355 59Z" fill="#FF5B7E"/>
<path d="M59.0177 52C59.0177 52 58.1047 61.0032 51 61.6263C58.1044 62.2491 59.0177 71.2524 59.0177 71.2524C59.0177 71.2524 59.9309 62.2491 67.0358 61.6263C59.9309 61.0035 59.0177 52 59.0177 52Z" fill="#24F2FF"/>
<path d="M8.01791 27.3086C8.01791 27.3086 7.10467 36.3118 0 36.9346C7.10467 37.5575 8.01791 46.5607 8.01791 46.5607C8.01791 46.5607 8.93088 37.5575 16.0358 36.9346C8.93114 36.3118 8.01791 27.3086 8.01791 27.3086Z" fill="#02CCC0"/>
<path d="M51.1147 21C51.1147 21 50.4182 28.9769 45 29.5287C50.4182 30.0807 51.1147 38.0574 51.1147 38.0574C51.1147 38.0574 51.8112 30.0805 57.2294 29.5287C51.8112 28.9767 51.1147 21 51.1147 21Z" fill="#FEB546"/>
<path d="M33.1147 0C33.1147 0 32.4182 7.97694 27 8.52872C32.4182 9.0805 33.1147 17.0574 33.1147 17.0574C33.1147 17.0574 33.8112 9.0805 39.2294 8.52872C33.8109 7.97694 33.1147 0 33.1147 0Z" fill="#FEB546"/>
</svg>
