<svg width="820" height="663" viewBox="0 0 820 663" fill="none" xmlns="http://www.w3.org/2000/svg">
<path d="M105.012 37.3755C29.2555 99.8686 116.827 225.239 67.9174 306.603C12.6675 398.512 7.55028 443.896 19.5177 489.207C26.9949 517.516 54.8771 583.406 124.293 608.933C220.474 644.301 301.169 582.962 444.357 618.697C620.887 662.752 776.746 659.492 804.061 512.566C813.973 459.243 768.375 386.35 798.39 268.236C827.594 153.308 844.006 39.3336 733.528 14.2949C649.228 -4.80977 596.508 56.0099 440.898 56.0099C290.771 56.0077 185.616 -29.12 105.012 37.3755Z" fill="#5433A1"/>
<path d="M107.126 622.861C106.689 623.249 106.051 623.373 105.481 623.123C105.06 622.94 104.64 622.757 104.223 622.571C103.444 622.225 103.093 621.313 103.437 620.534C103.784 619.755 104.695 619.404 105.475 619.748C105.885 619.931 106.298 620.112 106.713 620.291C107.495 620.631 107.852 621.541 107.512 622.324C107.422 622.536 107.287 622.715 107.126 622.861ZM96.3285 617.741C95.8649 618.154 95.1783 618.262 94.5933 617.962C91.9596 616.607 89.3325 615.169 86.7849 613.695C86.0476 613.269 85.7959 612.324 86.222 611.584C86.6503 610.847 87.5951 610.595 88.3325 611.021C90.8359 612.472 93.4188 613.882 96.0061 615.216C96.7634 615.606 97.0636 616.538 96.6729 617.295C96.5845 617.47 96.4675 617.618 96.3285 617.741ZM79.5903 607.933C79.0804 608.39 78.3077 608.463 77.7094 608.067C75.2436 606.432 72.7909 604.712 70.4199 602.959C69.7334 602.451 69.5899 601.484 70.0976 600.8C70.6054 600.113 71.5723 599.97 72.2567 600.478C74.5857 602.2 76.9942 603.888 79.4159 605.496C80.1268 605.968 80.3211 606.926 79.8508 607.637C79.7758 607.745 79.6875 607.845 79.5903 607.933ZM64.051 596.314C63.488 596.817 62.6271 596.842 62.031 596.343C59.7726 594.447 57.5297 592.462 55.364 590.444C54.7393 589.864 54.7061 588.886 55.2867 588.261C55.8718 587.636 56.8453 587.603 57.4701 588.184C59.5982 590.166 61.7992 592.115 64.0179 593.976C64.6713 594.524 64.7552 595.5 64.2077 596.153C64.1569 596.21 64.1062 596.263 64.051 596.314ZM49.9267 583.013C49.3063 583.567 48.3548 583.53 47.7787 582.923C46.549 581.629 45.3216 580.291 44.1251 578.953C43.3502 578.086 42.5731 577.198 41.8159 576.315C41.2618 575.669 41.3523 574.682 41.9837 574.139C42.6305 573.582 43.6063 573.657 44.1604 574.306C44.9043 575.174 45.6682 576.046 46.4276 576.9C47.602 578.216 48.8096 579.527 50.0172 580.799C50.6044 581.417 50.5779 582.395 49.9598 582.982C49.9487 582.991 49.9377 583.004 49.9267 583.013ZM37.3698 568.222C37.3389 568.249 37.308 568.275 37.2748 568.302C36.5949 568.818 35.6258 568.684 35.1114 568.006C33.332 565.661 31.5814 563.233 29.9058 560.787C29.4246 560.083 29.6012 559.125 30.3076 558.639C31.0118 558.158 31.9721 558.337 32.4534 559.041C34.1003 561.445 35.8222 563.834 37.5707 566.136C38.0607 566.783 37.9636 567.69 37.3698 568.222ZM26.4774 552.162C26.4068 552.226 26.3295 552.281 26.2456 552.332C25.5149 552.773 24.5656 552.539 24.1263 551.809C22.6031 549.288 21.1151 546.691 19.7045 544.089C19.2983 543.338 19.5742 542.4 20.3248 541.996C21.0754 541.59 22.0114 541.868 22.4176 542.616C23.8084 545.177 25.2721 547.733 26.7688 550.213C27.1596 550.857 27.0205 551.676 26.4774 552.162ZM17.2959 535.06C17.1878 535.157 17.0664 535.238 16.9273 535.302C16.1568 535.667 15.2362 535.34 14.8698 534.567C13.6092 531.905 12.3884 529.172 11.2449 526.443C10.9137 525.657 11.2846 524.752 12.0705 524.421C12.8564 524.092 13.7616 524.461 14.0927 525.247C15.2186 527.933 16.4195 530.624 17.6624 533.243C17.9627 533.881 17.7949 534.616 17.2959 535.06ZM9.86734 517.123C9.72164 517.253 9.55164 517.354 9.35737 517.425C8.5538 517.712 7.67076 517.293 7.38378 516.489C6.38152 513.683 5.44108 510.84 4.58673 508.038C4.33948 507.222 4.79866 506.361 5.61327 506.111C6.42788 505.862 7.29105 506.323 7.54051 507.138C8.38161 509.893 9.30661 512.69 10.2912 515.452C10.512 516.061 10.3221 516.719 9.86734 517.123ZM4.31078 498.517C4.12534 498.682 3.89796 498.804 3.64187 498.866C2.81181 499.062 1.97954 498.55 1.78306 497.72C0.480567 492.241 0.0324163 489.035 0.0147554 488.901C-0.102248 488.055 0.489391 487.278 1.33491 487.161C2.18042 487.044 2.95971 487.636 3.07451 488.481C3.07892 488.512 3.52266 491.689 4.78762 497.007C4.92007 497.576 4.71919 498.15 4.31078 498.517Z" fill="#D0D0D0"/>
<path d="M353.775 653.811C367.892 638.561 355.439 616.324 333.659 617.509C316.208 618.459 295.33 622.578 289.482 636.276C278.93 660.993 337.403 670.624 353.135 654.487C353.353 654.262 353.567 654.039 353.775 653.811Z" fill="#5433A1"/>
<path d="M56.4829 92.7865C56.4255 92.7843 56.3681 92.7799 56.3107 92.771C55.3459 92.6386 54.6682 91.7511 54.8007 90.7842C55.2841 87.2233 55.9089 83.6713 56.6551 80.2296C56.8604 79.2759 57.8008 78.671 58.7545 78.8785C59.706 79.0838 60.3109 80.0243 60.1055 80.978C59.3792 84.3291 58.7721 87.7885 58.2997 91.2588C58.1739 92.1706 57.3792 92.8218 56.4829 92.7865ZM60.7215 72.9776C60.5758 72.971 60.4301 72.9489 60.2844 72.9047C59.3505 72.6266 58.8185 71.6442 59.0967 70.7104C60.121 67.2753 61.2977 63.8624 62.6002 60.5664C62.9578 59.6591 63.9843 59.2153 64.8894 59.573C65.7968 59.9306 66.2405 60.9549 65.8829 61.8623C64.6201 65.0633 63.4744 68.3791 62.4809 71.717C62.2469 72.5074 61.5096 73.0085 60.7215 72.9776ZM68.0993 54.1091C67.8587 54.1003 67.6181 54.0407 67.3885 53.9281C66.5143 53.4976 66.1544 52.4402 66.5849 51.566C68.1656 48.3605 69.9073 45.1926 71.7639 42.1549C72.2717 41.3226 73.3579 41.0621 74.1901 41.5699C75.0224 42.0776 75.2829 43.1638 74.7751 43.996C72.9737 46.9432 71.2827 50.0162 69.7506 53.1267C69.4349 53.7691 68.7748 54.1356 68.0993 54.1091ZM78.6031 36.7772C78.2632 36.7639 77.9254 36.6535 77.6296 36.4372C76.8437 35.861 76.6737 34.7572 77.2477 33.9713C79.3537 31.0948 81.6209 28.2779 83.9853 25.6C84.6299 24.8693 85.7448 24.8009 86.4755 25.4455C87.2062 26.0901 87.2768 27.205 86.6322 27.9357C84.3385 30.534 82.1397 33.2671 80.0955 36.0575C79.7378 36.5476 79.1705 36.7993 78.6031 36.7772ZM91.9636 21.5248C91.5221 21.5071 91.0872 21.3261 90.7582 20.9839C90.0827 20.2797 90.107 19.1627 90.8112 18.4893C93.3986 16.0058 96.1228 13.6237 98.9021 11.4051C99.6638 10.798 100.774 10.9238 101.381 11.6855C101.988 12.4471 101.865 13.5575 101.101 14.1646C98.4032 16.3148 95.7629 18.6284 93.2528 21.0369C92.893 21.3791 92.425 21.5425 91.9636 21.5248ZM107.79 8.82881C107.24 8.80673 106.71 8.53078 106.384 8.03848C105.847 7.22608 106.07 6.1311 106.883 5.59244C112.477 1.8969 116.177 0.223535 116.333 0.155099C117.221 -0.244478 118.267 0.1551 118.665 1.04256C119.064 1.93223 118.665 2.97643 117.777 3.3738C117.698 3.40912 114.128 5.03612 108.83 8.5374C108.51 8.74712 108.148 8.84205 107.79 8.82881Z" fill="#D0D0D0"/>
<path d="M643.137 659.39C642.164 659.39 641.376 658.602 641.374 657.631C641.371 656.657 642.159 655.865 643.133 655.862C646.674 655.853 650.213 655.783 653.654 655.655C654.617 655.615 655.447 656.379 655.485 657.352C655.52 658.326 654.76 659.145 653.787 659.183C650.303 659.313 646.723 659.383 643.142 659.392L643.137 659.39ZM633.435 659.269C633.419 659.269 633.402 659.269 633.386 659.269C629.898 659.174 626.32 659.024 622.757 658.82C621.783 658.765 621.039 657.931 621.094 656.957C621.15 655.984 621.995 655.24 622.958 655.295C626.488 655.496 630.029 655.646 633.484 655.739C634.457 655.765 635.225 656.575 635.199 657.551C635.172 658.509 634.389 659.269 633.435 659.269ZM663.403 658.655C662.487 658.655 661.712 657.946 661.644 657.017C661.573 656.045 662.304 655.2 663.277 655.129C666.807 654.876 670.326 654.549 673.735 654.165C674.7 654.054 675.578 654.752 675.686 655.719C675.797 656.688 675.099 657.562 674.132 657.67C670.677 658.061 667.11 658.39 663.531 658.648C663.489 658.653 663.445 658.655 663.403 658.655ZM613.178 658.149C613.129 658.149 613.081 658.147 613.03 658.143C611.692 658.032 610.348 657.915 608.992 657.79C608.023 657.699 607.308 656.84 607.398 655.869C607.489 654.898 608.345 654.189 609.319 654.275C610.661 654.399 611.995 654.516 613.321 654.626C614.293 654.706 615.015 655.558 614.935 656.529C614.86 657.45 614.087 658.149 613.178 658.149ZM683.539 656.399C682.682 656.399 681.932 655.776 681.797 654.904C681.647 653.942 682.309 653.039 683.272 652.891C686.76 652.352 690.232 651.73 693.595 651.043C694.546 650.847 695.482 651.465 695.676 652.418C695.871 653.374 695.257 654.306 694.301 654.5C690.884 655.198 687.356 655.831 683.813 656.379C683.72 656.392 683.627 656.399 683.539 656.399ZM703.39 652.37C702.602 652.37 701.884 651.838 701.681 651.041C701.44 650.096 702.012 649.136 702.955 648.895C706.37 648.025 709.757 647.061 713.024 646.03C713.955 645.738 714.944 646.253 715.238 647.182C715.532 648.111 715.015 649.103 714.086 649.396C710.754 650.447 707.302 651.429 703.825 652.317C703.681 652.354 703.535 652.37 703.39 652.37ZM722.713 646.308C722 646.308 721.329 645.873 721.062 645.166C720.717 644.255 721.177 643.237 722.088 642.893C725.371 641.652 728.618 640.303 731.742 638.884C732.632 638.48 733.676 638.873 734.08 639.76C734.484 640.647 734.091 641.694 733.204 642.098C730.011 643.548 726.691 644.928 723.338 646.195C723.13 646.27 722.921 646.308 722.713 646.308ZM741.162 637.97C740.531 637.97 739.921 637.63 739.603 637.036C739.144 636.175 739.469 635.106 740.33 634.647C743.414 633.002 746.449 631.239 749.357 629.404C750.18 628.883 751.271 629.13 751.792 629.954C752.313 630.777 752.065 631.868 751.242 632.389C748.264 634.27 745.151 636.075 741.994 637.762C741.727 637.903 741.442 637.97 741.162 637.97ZM758.309 627.207C757.765 627.207 757.231 626.958 756.885 626.486C756.308 625.7 756.478 624.596 757.264 624.017C760.07 621.96 762.819 619.774 765.428 617.525C766.168 616.887 767.28 616.971 767.916 617.71C768.552 618.45 768.47 619.562 767.731 620.2C765.051 622.512 762.229 624.753 759.351 626.865C759.037 627.097 758.671 627.207 758.309 627.207ZM773.687 614.039C773.234 614.039 772.782 613.867 772.437 613.52C771.748 612.829 771.751 611.712 772.439 611.023C774.89 608.58 777.274 606.003 779.526 603.365C780.159 602.624 781.272 602.537 782.014 603.169C782.756 603.802 782.842 604.915 782.21 605.657C779.897 608.366 777.449 611.012 774.932 613.522C774.587 613.867 774.137 614.039 773.687 614.039ZM786.893 598.679C786.528 598.679 786.164 598.566 785.848 598.336C785.063 597.758 784.895 596.654 785.473 595.868C787.52 593.087 789.489 590.177 791.332 587.219C791.847 586.393 792.935 586.137 793.763 586.654C794.591 587.168 794.845 588.256 794.328 589.084C792.438 592.117 790.416 595.104 788.317 597.959C787.97 598.429 787.434 598.679 786.893 598.679ZM797.668 581.503C797.39 581.503 797.105 581.437 796.842 581.298C795.981 580.841 795.655 579.772 796.112 578.912C797.73 575.865 799.266 572.697 800.679 569.498C801.072 568.606 802.116 568.202 803.006 568.595C803.898 568.988 804.302 570.03 803.907 570.922C802.461 574.201 800.887 577.446 799.229 580.567C798.911 581.163 798.299 581.503 797.668 581.503ZM805.929 562.966C805.726 562.966 805.521 562.931 805.32 562.858C804.403 562.522 803.935 561.507 804.271 560.593C805.463 557.345 806.567 553.996 807.552 550.636C807.825 549.7 808.805 549.166 809.741 549.438C810.678 549.711 811.214 550.692 810.94 551.628C809.934 555.065 808.805 558.489 807.587 561.809C807.324 562.524 806.649 562.966 805.929 562.966ZM811.697 543.488C811.567 543.488 811.435 543.473 811.302 543.444C810.353 543.228 809.759 542.281 809.975 541.329C810.755 537.921 811.43 534.455 811.98 531.026C812.135 530.064 813.042 529.41 814.002 529.565C814.965 529.719 815.618 530.624 815.464 531.587C814.901 535.09 814.212 538.631 813.415 542.115C813.23 542.934 812.501 543.488 811.697 543.488ZM814.969 523.419C814.912 523.419 814.857 523.417 814.799 523.41C813.83 523.317 813.117 522.454 813.212 521.485C813.702 516.374 813.755 512.869 813.755 511.597C813.755 511.253 813.751 511.069 813.751 511.058C813.731 510.085 814.503 509.277 815.477 509.257C815.49 509.257 815.503 509.257 815.517 509.257C816.472 509.257 817.258 510.021 817.281 510.983C817.281 510.983 817.285 511.193 817.285 511.599C817.285 512.919 817.23 516.56 816.726 521.823C816.636 522.737 815.868 523.419 814.969 523.419Z" fill="#D0D0D0"/>
<path d="M320.545 18.412C320.373 18.4032 320.196 18.3656 320.029 18.2972C317.393 17.2111 315.978 16.5642 315.918 16.5377C315.143 16.1823 314.801 15.2662 315.156 14.4913C315.512 13.7164 316.428 13.3742 317.205 13.7297C317.218 13.7363 318.631 14.3809 321.207 15.4428C321.996 15.7673 322.373 16.6702 322.046 17.4605C321.79 18.0765 321.179 18.4429 320.545 18.412Z" fill="#D0D0D0"/>
<path d="M418.206 41.0776C418.197 41.0776 418.19 41.0775 418.181 41.0753C415.161 40.8899 412.075 40.6493 409.007 40.3535C408.157 40.2718 407.534 39.5168 407.616 38.669C407.697 37.8191 408.459 37.201 409.3 37.2782C412.333 37.5696 415.387 37.8081 418.369 37.9913C419.221 38.0443 419.868 38.775 419.817 39.6272C419.766 40.4705 419.047 41.1151 418.206 41.0776ZM429.175 41.508C428.343 41.4705 427.687 40.7751 427.703 39.9384C427.718 39.0863 428.42 38.4064 429.275 38.4196C432.319 38.4726 435.376 38.466 438.363 38.3997C439.213 38.3821 439.922 39.0576 439.942 39.9097C439.959 40.7619 439.284 41.4683 438.432 41.4882C435.405 41.5544 432.308 41.561 429.222 41.508C429.204 41.5102 429.189 41.5102 429.175 41.508ZM398.174 39.0996C398.127 39.0973 398.083 39.0929 398.037 39.0885C395.035 38.6823 391.975 38.2209 388.942 37.7154C388.1 37.5741 387.531 36.7793 387.672 35.9382C387.811 35.0971 388.608 34.5276 389.449 34.6689C392.452 35.17 395.48 35.627 398.452 36.0266C399.297 36.1414 399.889 36.9184 399.776 37.7639C399.666 38.5609 398.966 39.1349 398.174 39.0996ZM449.304 41.0047C448.525 40.9694 447.883 40.3513 447.836 39.5543C447.785 38.7022 448.432 37.9715 449.284 37.9185C452.269 37.7374 455.331 37.5189 458.382 37.2694C459.232 37.1966 459.978 37.8324 460.046 38.6845C460.115 39.5344 459.484 40.2806 458.631 40.349C455.558 40.6007 452.477 40.8193 449.47 41.0025C449.415 41.0069 449.357 41.0069 449.304 41.0047ZM378.327 35.7373C378.248 35.7329 378.168 35.7241 378.089 35.7086C375.115 35.106 372.093 34.4481 369.104 33.7549C368.274 33.5628 367.755 32.7328 367.949 31.9005C368.141 31.0705 368.969 30.5516 369.804 30.7459C372.764 31.4325 375.76 32.0837 378.705 32.682C379.542 32.852 380.082 33.6666 379.912 34.5033C379.758 35.2583 379.076 35.7727 378.327 35.7373ZM469.367 39.3313C468.616 39.296 467.985 38.7198 467.903 37.9494C467.815 37.1016 468.429 36.34 469.279 36.2517C472.263 35.9382 475.312 35.5894 478.345 35.2141C479.195 35.1104 479.964 35.7109 480.067 36.5586C480.171 37.4063 479.571 38.1768 478.723 38.2805C475.672 38.658 472.603 39.009 469.601 39.3247C469.524 39.3335 469.444 39.3335 469.367 39.3313ZM358.728 31.1345C358.62 31.1301 358.51 31.1124 358.399 31.0837C355.45 30.2956 352.472 29.4589 349.549 28.5935C348.732 28.3507 348.264 27.4919 348.505 26.6751C348.748 25.8561 349.606 25.3902 350.425 25.6309C353.322 26.4874 356.273 27.3175 359.196 28.099C360.02 28.3198 360.51 29.1653 360.291 29.9887C360.099 30.704 359.437 31.1676 358.728 31.1345ZM489.348 36.8301C488.622 36.797 487.999 36.2539 487.891 35.5078C487.77 34.6645 488.355 33.8807 489.198 33.7571C492.17 33.3288 495.205 32.863 498.221 32.3773C499.064 32.2427 499.854 32.8145 499.991 33.6556C500.128 34.4989 499.554 35.2914 498.713 35.4261C495.682 35.914 492.629 36.382 489.64 36.8124C489.542 36.8301 489.443 36.8345 489.348 36.8301ZM509.221 33.5959C508.517 33.5628 507.903 33.0507 507.773 32.3266C507.621 31.4877 508.179 30.6841 509.018 30.5318C511.983 29.9953 515.001 29.428 517.99 28.8408C518.826 28.6752 519.639 29.2227 519.804 30.0594C519.968 30.8961 519.422 31.7085 518.586 31.8718C515.581 32.4613 512.548 33.033 509.568 33.5717C509.453 33.5937 509.336 33.6026 509.221 33.5959ZM339.436 25.3704C339.297 25.3638 339.158 25.3395 339.021 25.2931C336.085 24.3196 333.162 23.3041 330.332 22.2753C329.53 21.9839 329.115 21.0965 329.409 20.2951C329.7 19.4937 330.586 19.0787 331.389 19.3701C334.193 20.39 337.087 21.3945 339.994 22.3592C340.805 22.6263 341.244 23.5028 340.975 24.3107C340.749 24.9841 340.111 25.4013 339.436 25.3704ZM528.977 29.6885C528.293 29.6576 527.69 29.1697 527.538 28.4699C527.359 27.6354 527.889 26.8142 528.723 26.6353C531.692 25.9973 534.69 25.3306 537.635 24.6507C538.465 24.4586 539.295 24.9774 539.487 25.8097C539.68 26.6398 539.161 27.4698 538.328 27.6619C535.368 28.3441 532.355 29.0152 529.37 29.6554C529.24 29.6841 529.107 29.6951 528.977 29.6885ZM548.594 25.1364C547.929 25.1055 547.336 24.6463 547.166 23.9663C546.958 23.1385 547.464 22.2996 548.289 22.0943C551.287 21.3459 554.263 20.5777 557.131 19.8116C557.954 19.5909 558.802 20.081 559.023 20.9044C559.243 21.7278 558.753 22.5756 557.93 22.7963C555.047 23.5668 552.055 24.3395 549.04 25.0922C548.89 25.1298 548.742 25.143 548.594 25.1364Z" fill="#D0D0D0"/>
<path d="M567.972 19.9131C567.331 19.8844 566.751 19.454 566.561 18.8027C566.32 17.9837 566.791 17.1249 567.607 16.8865C570.301 16.0962 571.784 15.626 571.797 15.6216C572.61 15.3633 573.48 15.8136 573.738 16.626C573.996 17.4384 573.546 18.3082 572.734 18.5665C572.672 18.5864 571.208 19.05 568.477 19.8513C568.307 19.8999 568.137 19.9198 567.972 19.9131Z" fill="#D0D0D0"/>
</svg>
