<svg width="177" height="196" viewBox="0 0 177 196" fill="none" xmlns="http://www.w3.org/2000/svg">
<path d="M1.47967 195.888C0.775381 195.888 0.182837 195.343 0.130354 194.63C0.0440109 193.416 0 192.209 0 191.042C0 189.38 0.089725 187.743 0.265797 186.178C0.348754 185.435 1.01749 184.898 1.76241 184.985C2.50564 185.068 3.03893 185.738 2.95598 186.48C2.79176 187.944 2.7071 189.48 2.7071 191.042C2.7071 192.145 2.74942 193.287 2.83069 194.437C2.88317 195.182 2.32279 195.83 1.57618 195.883C1.54401 195.886 1.51184 195.888 1.47967 195.888ZM3.20653 180.387C3.06263 180.387 2.91704 180.365 2.77313 180.316C2.06546 180.077 1.68454 179.308 1.92325 178.601C2.83408 175.899 4.09197 173.332 5.66137 170.969C6.07447 170.347 6.9142 170.176 7.53722 170.589C8.16024 171.002 8.32954 171.842 7.91645 172.465C6.4774 174.632 5.32448 176.987 4.48814 179.466C4.29852 180.031 3.77199 180.387 3.20653 180.387ZM11.6089 167.346C11.2533 167.346 10.8978 167.207 10.632 166.929C10.1157 166.389 10.1343 165.532 10.6727 165.016C12.6027 163.167 14.8391 161.415 17.3194 159.81C17.9475 159.404 18.7855 159.583 19.1918 160.211C19.5982 160.839 19.4187 161.677 18.7906 162.084C16.4543 163.596 14.3515 165.241 12.5451 166.973C12.2827 167.22 11.9458 167.346 11.6089 167.346ZM24.6297 158.638C24.1252 158.638 23.6427 158.356 23.4091 157.871C23.0857 157.198 23.3685 156.39 24.0423 156.065C26.3989 154.932 28.9909 153.849 31.7471 152.843C32.4497 152.588 33.2268 152.948 33.4824 153.651C33.738 154.353 33.3775 155.13 32.6749 155.386C30.0016 156.361 27.4909 157.411 25.2155 158.505C25.0259 158.596 24.8261 158.638 24.6297 158.638ZM39.3774 153.126C38.7916 153.126 38.2533 152.743 38.0789 152.154C37.869 151.436 38.2787 150.685 38.9965 150.475C41.4835 149.745 44.1821 149.031 47.0179 148.352C47.7459 148.177 48.4756 148.626 48.65 149.352C48.8244 150.079 48.3757 150.81 47.6494 150.984C44.8577 151.653 42.203 152.356 39.7601 153.074C39.6331 153.109 39.5044 153.126 39.3774 153.126ZM54.6991 149.388C54.0693 149.388 53.5055 148.946 53.3751 148.306C53.2245 147.575 53.6968 146.859 54.4299 146.708C56.9677 146.186 59.624 145.679 62.5478 145.152C63.2826 145.022 63.9869 145.508 64.1189 146.244C64.251 146.979 63.7617 147.683 63.0269 147.815C60.1235 148.338 57.4891 148.843 54.9733 149.357C54.8819 149.379 54.7905 149.388 54.6991 149.388ZM70.2238 146.561C69.5737 146.561 68.9998 146.09 68.8898 145.428C68.7679 144.69 69.2673 143.994 70.0038 143.872C72.3435 143.486 74.8542 143.081 78.1437 142.565C78.8818 142.448 79.5743 142.953 79.6911 143.691C79.8079 144.429 79.3034 145.122 78.5652 145.238C75.2825 145.755 72.7786 146.158 70.4456 146.542C70.3711 146.554 70.2966 146.561 70.2238 146.561ZM85.8232 144.085C85.168 144.085 84.5923 143.608 84.4874 142.941C84.3723 142.203 84.8767 141.51 85.6149 141.395C88.0274 141.018 90.8784 140.567 93.7362 140.102C94.476 139.983 95.1702 140.483 95.2904 141.219C95.4106 141.957 94.9094 142.653 94.173 142.773C91.3084 143.241 88.4507 143.691 86.0348 144.07C85.962 144.08 85.8926 144.085 85.8232 144.085ZM101.394 141.534C100.749 141.534 100.178 141.072 100.063 140.415C99.9343 139.679 100.425 138.978 101.162 138.847C104.067 138.338 106.706 137.847 109.227 137.347C109.96 137.202 110.673 137.679 110.817 138.412C110.962 139.145 110.485 139.858 109.752 140.002C107.211 140.505 104.554 140.999 101.629 141.512C101.551 141.527 101.472 141.534 101.394 141.534ZM116.871 138.466C116.253 138.466 115.694 138.04 115.552 137.412C115.386 136.684 115.843 135.957 116.573 135.793C119.361 135.16 122.03 134.5 124.508 133.828C125.228 133.631 125.973 134.058 126.169 134.779C126.365 135.5 125.939 136.243 125.217 136.44C122.703 137.122 119.998 137.793 117.174 138.432C117.071 138.456 116.971 138.466 116.871 138.466ZM132.091 134.334C131.522 134.334 130.992 133.971 130.804 133.401C130.572 132.69 130.958 131.926 131.67 131.694C134.361 130.814 136.926 129.871 139.295 128.894C139.986 128.608 140.776 128.938 141.062 129.629C141.347 130.32 141.018 131.11 140.328 131.396C137.898 132.399 135.267 133.365 132.513 134.266C132.372 134.312 132.23 134.334 132.091 134.334ZM146.646 128.324C146.158 128.324 145.688 128.059 145.445 127.599C145.098 126.937 145.354 126.119 146.016 125.772C148.471 124.486 150.79 123.089 152.908 121.619C153.523 121.193 154.366 121.347 154.791 121.96C155.217 122.574 155.065 123.417 154.45 123.842C152.239 125.376 149.825 126.832 147.27 128.17C147.072 128.273 146.857 128.324 146.646 128.324ZM159.565 119.386C159.201 119.386 158.837 119.241 158.57 118.951C158.063 118.401 158.097 117.546 158.647 117.038C160.655 115.186 162.457 113.203 164.004 111.146C164.453 110.549 165.303 110.429 165.899 110.877C166.496 111.326 166.616 112.174 166.168 112.772C164.524 114.961 162.611 117.065 160.483 119.027C160.222 119.268 159.893 119.386 159.565 119.386ZM169.022 106.902C168.822 106.902 168.621 106.858 168.43 106.765C167.757 106.437 167.478 105.627 167.807 104.955C168.97 102.571 169.864 100.067 170.463 97.5127C170.634 96.7847 171.36 96.3327 172.09 96.5037C172.818 96.6747 173.27 97.4027 173.099 98.1306C172.454 100.88 171.492 103.575 170.241 106.14C170.004 106.623 169.523 106.902 169.022 106.902ZM172.742 91.7159C172.73 91.7159 172.718 91.7159 172.704 91.7159C171.958 91.6956 171.367 91.0743 171.387 90.326C171.396 89.9924 171.401 89.6589 171.401 89.3271C171.401 87.05 171.187 84.7289 170.768 82.4265C170.634 81.6917 171.12 80.9857 171.856 80.8519C172.591 80.7165 173.297 81.2041 173.431 81.9405C173.881 84.4022 174.108 86.8875 174.108 89.3271C174.108 89.6843 174.103 90.0415 174.094 90.3988C174.074 91.1335 173.473 91.7159 172.742 91.7159ZM113.908 87.4817C113.903 87.4817 113.898 87.4817 113.895 87.4817C111.755 87.4817 109.708 87.2599 107.813 86.8214C107.085 86.6521 106.632 85.9259 106.799 85.1979C106.967 84.4699 107.695 84.0162 108.423 84.1838C110.118 84.5749 111.958 84.7746 113.895 84.7746C113.9 84.7746 113.903 84.7746 113.907 84.7746C114.646 84.7746 115.413 84.7458 116.187 84.6866C116.937 84.6273 117.582 85.1894 117.638 85.9343C117.694 86.6792 117.135 87.3293 116.39 87.3852C115.55 87.4496 114.714 87.4817 113.908 87.4817ZM123.702 86.0969C123.103 86.0969 122.556 85.6956 122.395 85.0895C122.204 84.3666 122.634 83.6267 123.357 83.4354C125.463 82.8784 127.669 82.1386 129.912 81.2396C130.254 81.1025 130.593 80.9603 130.93 80.8164C131.615 80.5184 132.413 80.835 132.709 81.5207C133.005 82.2064 132.69 83.0037 132.005 83.3C131.646 83.4558 131.285 83.6065 130.921 83.7521C128.575 84.6934 126.264 85.4671 124.051 86.0528C123.933 86.0833 123.817 86.0969 123.702 86.0969ZM101.279 83.8198C101.003 83.8198 100.725 83.7368 100.485 83.5624C98.0398 81.7882 96.1538 79.5026 94.8807 76.765C94.5658 76.0878 94.8586 75.282 95.5375 74.9671C96.2147 74.6522 97.0206 74.9451 97.3355 75.624C98.4123 77.9383 100.007 79.8717 102.074 81.3734C102.679 81.8119 102.814 82.6584 102.376 83.2628C102.11 83.6268 101.697 83.8198 101.279 83.8198ZM138.079 79.8328C137.639 79.8328 137.207 79.6178 136.947 79.2216C136.537 78.5969 136.71 77.7572 137.334 77.3475C139.491 75.9304 141.602 74.2696 143.605 72.4124C144.154 71.9045 145.009 71.9366 145.518 72.4852C146.026 73.0337 145.994 73.8904 145.445 74.3982C143.333 76.357 141.103 78.111 138.821 79.611C138.592 79.7616 138.335 79.8328 138.079 79.8328ZM170.102 76.2775C169.552 76.2775 169.036 75.9388 168.833 75.3937C167.923 72.9338 166.774 70.5077 165.418 68.1832C165.04 67.5382 165.259 66.7086 165.905 66.3328C166.55 65.9553 167.38 66.1736 167.756 66.8204C169.191 69.282 170.407 71.8503 171.37 74.4575C171.629 75.1584 171.27 75.9371 170.57 76.1962C170.417 76.2504 170.258 76.2775 170.102 76.2775ZM94.4845 70.2453C93.7464 70.2453 93.142 69.6528 93.1318 68.9112C93.1301 68.813 93.1301 68.7165 93.1301 68.6183C93.1301 65.8435 93.6702 63.067 94.7368 60.365C95.011 59.6691 95.7983 59.3288 96.4924 59.6031C97.1882 59.8774 97.5285 60.6629 97.2542 61.3588C96.3129 63.7425 95.8372 66.1855 95.8372 68.6183C95.8372 68.703 95.8372 68.7876 95.8389 68.8723C95.8491 69.6189 95.2531 70.2352 94.5048 70.2453C94.4981 70.2453 94.4913 70.2453 94.4845 70.2453ZM149.705 69.2854C149.399 69.2854 149.09 69.1821 148.838 68.9705C148.264 68.4914 148.188 67.6381 148.667 67.0642C150.323 65.0833 151.938 62.9011 153.467 60.5817C153.878 59.957 154.718 59.7843 155.341 60.1957C155.966 60.6071 156.137 61.4468 155.725 62.0698C154.141 64.4756 152.465 66.7391 150.743 68.7978C150.477 69.1195 150.093 69.2854 149.705 69.2854ZM162.311 62.6522C161.915 62.6522 161.524 62.4795 161.256 62.1477C159.585 60.0738 157.733 58.1217 155.752 56.3458C155.195 55.8464 155.15 54.9914 155.649 54.4344C156.077 53.9553 156.77 53.8537 157.31 54.1517C158.544 51.8763 159.745 49.4435 160.875 46.9226C161.182 46.2403 161.983 45.9356 162.663 46.242C163.346 46.5484 163.65 47.3492 163.344 48.0315C162.176 50.637 160.935 53.1528 159.655 55.5044C159.558 55.6822 159.428 55.8294 159.276 55.9429C160.723 57.3633 162.093 58.8734 163.364 60.4496C163.833 61.032 163.742 61.8836 163.159 62.3526C162.909 62.554 162.609 62.6522 162.311 62.6522ZM99.8259 55.7634C99.5229 55.7634 99.2164 55.6618 98.9642 55.4536C98.3869 54.9778 98.3056 54.1246 98.7831 53.549C100.578 51.3751 102.743 49.457 105.216 47.8453C105.843 47.4372 106.681 47.615 107.089 48.2414C107.497 48.8678 107.319 49.7059 106.693 50.1139C104.448 51.5749 102.489 53.3102 100.869 55.2724C100.603 55.5958 100.215 55.7634 99.8259 55.7634ZM150.687 52.0981C150.433 52.0981 150.176 52.027 149.947 51.8763C147.699 50.4034 145.337 49.1285 142.925 48.089C142.237 47.7928 141.921 46.9971 142.217 46.3097C142.513 45.6241 143.309 45.3074 143.995 45.602C146.549 46.7042 149.051 48.0518 151.428 49.6111C152.053 50.0208 152.229 50.8588 151.82 51.4852C151.559 51.883 151.127 52.0981 150.687 52.0981ZM112.708 47.0258C112.151 47.0258 111.629 46.6788 111.433 46.1235C111.184 45.4192 111.552 44.6455 112.256 44.3966C112.385 44.3509 112.513 44.3069 112.642 44.2629C115.21 43.3842 117.848 42.7442 120.484 42.3633C121.225 42.2567 121.911 42.7696 122.018 43.5078C122.124 44.2476 121.611 44.9333 120.872 45.0416C118.402 45.3989 115.928 45.9982 113.519 46.8227C113.399 46.8633 113.279 46.9056 113.16 46.948C113.011 47.0005 112.859 47.0258 112.708 47.0258ZM136.322 45.8103C136.217 45.8103 136.11 45.7984 136.004 45.773C133.408 45.1466 130.762 44.7742 128.138 44.6658C127.391 44.6353 126.811 44.0055 126.841 43.2589C126.872 42.5123 127.493 41.9282 128.248 41.9621C131.048 42.0755 133.872 42.4734 136.638 43.1421C137.365 43.3182 137.812 44.0496 137.636 44.7758C137.487 45.3955 136.933 45.8103 136.322 45.8103ZM164.984 41.8588C164.825 41.8588 164.663 41.83 164.505 41.7708C163.806 41.505 163.456 40.7245 163.72 40.0253C164.654 37.5603 165.555 34.9717 166.396 32.3306C166.623 31.6179 167.383 31.2251 168.096 31.452C168.809 31.6788 169.202 32.4407 168.975 33.1517C168.118 35.8402 167.202 38.4762 166.249 40.9852C166.046 41.527 165.531 41.8588 164.984 41.8588ZM169.816 26.8572C169.699 26.8572 169.579 26.8419 169.461 26.8098C168.739 26.6151 168.313 25.8718 168.507 25.1506C169.205 22.5756 169.865 19.9057 170.471 17.2172C170.636 16.4875 171.36 16.0304 172.09 16.1947C172.82 16.3589 173.277 17.0835 173.112 17.8132C172.498 20.5389 171.827 23.246 171.12 25.8583C170.957 26.461 170.412 26.8572 169.816 26.8572ZM173.319 11.478C173.236 11.478 173.151 11.4695 173.068 11.4543C172.334 11.3171 171.849 10.6095 171.988 9.87469C172.491 7.20145 172.946 4.48589 173.343 1.80588C173.453 1.06604 174.137 0.558119 174.88 0.664778C175.62 0.774823 176.129 1.46219 176.021 2.20203C175.62 4.9159 175.158 7.66533 174.65 10.3741C174.524 11.0242 173.957 11.478 173.319 11.478Z" fill="#8FB2E5"/>
</svg>
