<svg width="1240" height="111" viewBox="0 0 1240 111" fill="none" xmlns="http://www.w3.org/2000/svg">
<path d="M1234.04 38.9435C1232.17 38.8859 1230.41 39.0509 1229.32 39.3789C1228.8 39.5343 1225.94 40.3802 1220.53 41.7783C1218.51 42.3019 1218.85 43.1764 1221.29 43.7302C1223.74 44.2841 1227.38 44.3089 1229.4 43.7853C1234.97 42.3458 1238.02 41.4474 1238.63 41.2641C1239.33 41.0593 1239.75 40.7929 1239.76 40.4915C1239.78 39.7346 1237.22 39.0418 1234.04 38.9435ZM8.14738 1.09001C7.1894 1.06043 6.21528 1.08693 5.31117 1.18071C2.5338 1.46692 1.52845 2.27066 3.07111 2.97825C3.32703 3.09585 9.54804 5.9295 22.5551 10.5754C24.4235 11.2416 28.0208 11.4847 30.5989 11.1151C33.177 10.7456 33.7509 9.90632 31.8826 9.23839C19.3319 4.75402 13.2031 1.9678 13.1463 1.94033C12.1012 1.46238 10.157 1.15207 8.14738 1.09001ZM1203.92 46.4404C1202.38 46.3928 1200.84 46.491 1199.7 46.7453C1192.07 48.4416 1183.9 50.1419 1175.44 51.7986C1173.12 52.25 1173.02 53.1143 1175.2 53.7285C1177.38 54.3409 1181.03 54.474 1183.34 54.0209C1191.96 52.3346 1200.28 50.6012 1208.05 48.8734C1210.24 48.3872 1210.14 47.5169 1207.83 46.9296C1206.73 46.649 1205.33 46.4838 1203.92 46.4404ZM46.6626 15.0721C45.3589 15.0318 44.0519 15.096 42.9649 15.275C40.5082 15.6843 40.1502 16.5372 42.1707 17.1806C49.4387 19.498 57.1603 21.8311 65.1215 24.1117C67.2798 24.7303 70.9236 24.8702 73.2589 24.4247C75.5942 23.9791 75.7361 23.1161 73.5779 22.4975C65.7667 20.261 58.195 17.9737 51.0699 15.7001C49.9491 15.3415 48.312 15.123 46.6626 15.0721ZM1155.89 55.9074C1154.55 55.8659 1153.2 55.9356 1152.1 56.1278C1143.55 57.6312 1134.63 59.1127 1125.58 60.5338C1123.07 60.9278 1122.63 61.7747 1124.59 62.4282C1126.55 63.0819 1130.17 63.2914 1132.67 62.8989C1141.87 61.4566 1150.92 59.9502 1159.6 58.4235C1162.01 57.999 1162.28 57.1417 1160.21 56.5086C1159.09 56.1637 1157.5 55.957 1155.89 55.9074ZM91.5048 27.9878C89.9922 27.9411 88.4824 28.0351 87.343 28.2793C85.1221 28.7558 85.1674 29.6246 87.4417 30.2193C95.7023 32.3788 104.316 34.527 113.055 36.6018C115.446 37.171 119.085 37.2183 121.177 36.7104C123.27 36.2025 123.03 35.3294 120.639 34.7602C112.058 32.7227 103.601 30.6137 95.4906 28.4932C94.382 28.2035 92.9454 28.0323 91.5048 27.9878ZM1103.81 64.1298C1102.64 64.0936 1101.44 64.1425 1100.42 64.2873C1091.21 65.5904 1081.68 66.8647 1072.1 68.0738C1069.44 68.4098 1068.69 69.237 1070.43 69.9215C1072.17 70.6059 1075.74 70.8892 1078.4 70.5515C1088.12 69.3243 1097.78 68.032 1107.13 66.7094C1109.72 66.3435 1110.31 65.5046 1108.45 64.8354C1107.33 64.434 1105.59 64.1847 1103.81 64.1298ZM141.239 39.8479C139.525 39.795 137.826 39.9242 136.678 40.235C134.7 40.7705 135.12 41.644 137.612 42.1872C146.686 44.161 156.071 46.1083 165.515 47.9753C168.11 48.489 171.701 48.4474 173.543 47.8837C175.384 47.3201 174.769 46.4474 172.175 45.9336C162.903 44.0994 153.676 42.1861 144.767 40.2482C143.721 40.0188 142.478 39.8862 141.239 39.8479ZM1048.42 71.1549C1047.41 71.1236 1046.37 71.1566 1045.44 71.2615C1035.68 72.3643 1025.65 73.4309 1015.62 74.4308C1012.82 74.7095 1011.79 75.5106 1013.3 76.2207C1014.81 76.9309 1018.31 77.2787 1021.11 77.0017C1031.28 75.9875 1041.45 74.9045 1051.35 73.7874C1054.08 73.479 1054.97 72.6632 1053.34 71.9666C1052.26 71.5081 1050.37 71.215 1048.42 71.1549ZM195.176 50.5556C193.26 50.4964 191.38 50.6664 190.273 51.047C188.56 51.6352 189.348 52.5046 192.029 52.9902C201.78 54.7535 211.835 56.4833 221.906 58.1296C224.675 58.582 228.191 58.4522 229.752 57.8388C231.314 57.2254 230.339 56.3604 227.57 55.9081C217.67 54.2894 207.795 52.5908 198.216 50.8586C197.277 50.689 196.22 50.5878 195.176 50.5556ZM990.256 76.9885C989.384 76.9616 988.504 76.9807 987.673 77.0545C977.486 77.9519 967.027 78.8116 956.592 79.607C953.687 79.8293 952.373 80.5995 953.655 81.3282C954.945 82.0588 958.342 82.4706 961.247 82.2483C971.827 81.4419 982.431 80.5729 992.762 79.6611C995.617 79.4099 996.788 78.6215 995.383 77.9028C994.389 77.3921 992.366 77.0537 990.256 76.9885ZM252.728 60.0087C250.603 59.9431 248.556 60.161 247.54 60.613C246.114 61.2478 247.256 62.1041 250.098 62.5261C260.411 64.0599 271.021 65.5549 281.633 66.9711C284.548 67.3594 287.943 67.1419 289.218 66.487C290.493 65.8305 289.171 64.984 286.255 64.5957C275.83 63.2058 265.407 61.7355 255.273 60.2296C254.455 60.1083 253.585 60.0351 252.728 60.0087ZM929.774 81.6279C929.054 81.6057 928.311 81.6153 927.603 81.662C917.07 82.3549 906.264 83.0069 895.482 83.5996C892.485 83.7642 890.912 84.5007 891.97 85.2465C893.029 85.9905 896.316 86.4606 899.321 86.2962C910.247 85.696 921.198 85.0348 931.868 84.3323C934.823 84.1373 936.259 83.3829 935.085 82.6455C934.187 82.0864 932.043 81.698 929.774 81.6279ZM867.404 85.0844C866.821 85.0664 866.23 85.0687 865.638 85.095C854.808 85.5868 843.727 86.0349 832.699 86.4263C829.631 86.5356 827.814 87.2354 828.649 87.9897C829.484 88.744 832.64 89.2666 835.714 89.1592C846.887 88.7637 858.112 88.3098 869.079 87.812C872.112 87.6742 873.807 86.9534 872.849 86.2039C872.089 85.5994 869.839 85.1596 867.404 85.0844ZM313.277 68.1247C310.943 68.0527 308.736 68.3239 307.854 68.8486C306.716 69.5232 308.204 70.3576 311.178 70.7151C321.931 72.0071 332.981 73.2568 344.019 74.4307C347.044 74.7521 350.291 74.453 351.271 73.7616C352.251 73.0702 350.597 72.2494 347.571 71.928C336.727 70.7738 325.864 69.5453 315.291 68.2743C314.623 68.1954 313.947 68.1454 313.277 68.1247ZM803.564 87.3763C803.117 87.3625 802.656 87.3619 802.201 87.3736C791.161 87.6687 779.87 87.9182 768.646 88.1133C765.522 88.1677 763.49 88.8284 764.101 89.5895C764.712 90.3489 767.73 90.9203 770.861 90.8678C782.222 90.6684 793.65 90.4162 804.827 90.1185C807.923 90.0358 809.847 89.3547 809.121 88.5969C808.499 87.9503 806.157 87.4563 803.564 87.3763ZM376.147 74.8503C373.604 74.7717 371.258 75.1038 370.555 75.6958C369.711 76.4017 371.518 77.2082 374.587 77.4967C385.687 78.544 397.054 79.5464 408.374 80.4736C411.481 80.7272 414.556 80.3525 415.242 79.6332C415.927 78.9138 413.976 78.125 410.869 77.8714C399.73 76.9583 388.549 75.9737 377.636 74.9425C377.14 74.8964 376.644 74.8656 376.147 74.8503ZM738.64 88.5393C738.323 88.5295 737.999 88.5264 737.674 88.5301C726.496 88.6357 715.067 88.6942 703.697 88.703C700.539 88.705 698.306 89.3268 698.701 90.0881C699.096 90.8511 701.975 91.4662 705.133 91.4643C716.64 91.4545 728.206 91.3951 739.514 91.2884C742.651 91.2584 744.784 90.618 744.281 89.8551C743.819 89.1723 741.399 88.6245 738.64 88.5393ZM440.697 80.1775C437.938 80.0923 435.489 80.4898 434.993 81.1447C434.444 81.8734 436.533 82.6459 439.662 82.8677C450.957 83.6707 462.526 84.4273 474.055 85.1176C477.215 85.3025 480.098 84.8601 480.503 84.1218C480.907 83.3835 478.681 82.6309 475.529 82.4427C464.18 81.7631 452.783 81.0187 441.669 80.2281C441.338 80.2041 441.014 80.1873 440.697 80.1775ZM672.993 88.6223C672.799 88.6163 672.604 88.612 672.402 88.611C661.114 88.5349 649.597 88.4124 638.167 88.2446C634.989 88.1979 632.578 88.7783 632.771 89.5385C632.963 90.2987 635.683 90.962 638.868 91.0003C650.427 91.1704 662.067 91.2933 673.485 91.3699C676.649 91.3905 678.975 90.7903 678.681 90.0287C678.393 89.3153 675.91 88.7124 672.993 88.6223ZM506.284 84.1346C503.309 84.0427 500.779 84.508 500.512 85.218C500.236 85.9637 502.579 86.696 505.746 86.8555C517.156 87.4255 528.827 87.947 540.442 88.4068C543.617 88.5408 546.308 88.0257 546.446 87.2723C546.585 86.5207 544.127 85.8088 540.944 85.6831C529.494 85.2301 517.982 84.7152 506.738 84.1537C506.594 84.1459 506.435 84.1392 506.284 84.1346ZM606.938 87.678C606.859 87.6756 606.787 87.6733 606.707 87.6726C602.99 87.5921 599.258 87.506 595.504 87.4158C587.795 87.2292 580.016 87.0164 572.38 86.7841C569.204 86.6877 566.606 87.2211 566.59 87.9766C566.574 88.732 569.127 89.4228 572.303 89.5209L572.31 89.5211C580.054 89.7585 587.934 89.9727 595.751 90.1626C599.54 90.2539 603.316 90.3414 607.069 90.4213C610.247 90.4903 612.744 89.9314 612.645 89.1707C612.553 88.4307 610.021 87.7732 606.938 87.678Z" fill="#8FB2E5"/>
</svg>
