<svg width="64" height="53" viewBox="0 0 64 53" fill="none" xmlns="http://www.w3.org/2000/svg">
<path d="M34.8732 0.0247192C50.6995 0.0247192 63.5301 11.977 63.5301 26.0676C63.5301 40.1581 50.7005 52.1104 34.8732 52.1104C24.5808 52.1104 15.56 46.6946 10.5065 40.3879H0.238037V0.0247192H34.8732Z" fill="white"/>
<path d="M46.2202 22.262C48.5272 22.262 50.3978 23.9274 50.3978 25.9814C50.3978 28.0354 48.5272 29.7008 46.2202 29.7008C43.9132 29.7008 42.0427 28.0354 42.0427 25.9814C42.0427 23.9274 43.9132 22.262 46.2202 22.262Z" fill="#DA0678"/>
<path d="M36.7049 13.7906C39.0119 13.7906 40.8824 15.4551 40.8824 17.51C40.8824 19.564 39.0129 21.2294 36.7049 21.2294C34.3969 21.2294 32.5273 19.564 32.5273 17.51C32.5273 15.4551 34.3979 13.7906 36.7049 13.7906Z" fill="#4D84DC"/>
<path d="M36.7049 30.7336C39.0119 30.7336 40.8824 32.399 40.8824 34.453C40.8824 36.507 39.0129 38.1724 36.7049 38.1724C34.3969 38.1724 32.5273 36.507 32.5273 34.453C32.5273 32.399 34.3979 30.7336 36.7049 30.7336Z" fill="#E58E21"/>
<path d="M27.1895 22.262C29.4965 22.262 31.3671 23.9274 31.3671 25.9814C31.3671 28.0354 29.4975 29.7008 27.1895 29.7008C24.8815 29.7008 23.012 28.0354 23.012 25.9814C23.012 23.9274 24.8825 22.262 27.1895 22.262Z" fill="#51097E"/>
</svg>
