<svg width="59" height="71" viewBox="0 0 59 71" fill="none" xmlns="http://www.w3.org/2000/svg">
<path d="M58.1904 43.6506C58.1904 55.901 47.036 65.8303 33.2786 65.8303C19.5202 65.8303 8.36676 55.9001 8.36676 43.6506C8.36676 31.4011 19.5212 21.4718 33.2786 21.4718C47.037 21.4709 58.1904 31.4011 58.1904 43.6506Z" fill="#FEBA89"/>
<path d="M24.1505 48.7285C24.1505 54.6661 18.7442 59.4785 12.0752 59.4785C5.4073 59.4785 0 54.6661 0 48.7285C0 42.7919 5.4063 37.9776 12.0752 37.9776C18.7432 37.9776 24.1505 42.7919 24.1505 48.7285Z" fill="#FEBA89"/>
<path d="M58.189 43.6508H8.36432V70.7388H58.189V43.6508Z" fill="#FEBA89"/>
<path d="M22.0578 50.5323C22.0578 53.6199 19.2456 56.1238 15.7776 56.1238H14.6495C11.1815 56.1238 8.3692 53.6199 8.3692 50.5323V6.17287C8.3692 3.08432 11.1825 0.58136 14.6495 0.58136H15.7776C19.2466 0.58136 22.0578 3.08521 22.0578 6.17287V50.5323Z" fill="#FEBA89"/>
</svg>
