<svg width="170" height="50" viewBox="0 0 170 50" fill="none" xmlns="http://www.w3.org/2000/svg">
<g clip-path="url(#clip0_1_36)">
<g clip-path="url(#clip1_1_36)">
<g clip-path="url(#clip2_1_36)">
<path d="M0.890625 7C0.890625 3.13401 4.02464 0 7.89062 0H162.641C166.507 0 169.641 3.13401 169.641 7V43C169.641 46.866 166.507 50 162.641 50H7.89062C4.02464 50 0.890625 46.866 0.890625 43V7Z" fill="#F5F6FF"/>
<path d="M86.0608 27.1888C83.1208 27.1888 80.7246 29.4251 80.7246 32.5051C80.7246 35.5663 83.1208 37.8213 86.0608 37.8213C89.0021 37.8213 91.3983 35.5663 91.3983 32.5051C91.3971 29.4251 89.0008 27.1888 86.0608 27.1888ZM86.0608 35.7288C84.4496 35.7288 83.0608 34.4001 83.0608 32.5063C83.0608 30.5926 84.4508 29.2838 86.0608 29.2838C87.6721 29.2838 89.0608 30.5926 89.0608 32.5063C89.0608 34.3988 87.6721 35.7288 86.0608 35.7288ZM74.4183 27.1888C71.4783 27.1888 69.0821 29.4251 69.0821 32.5051C69.0821 35.5663 71.4783 37.8213 74.4183 37.8213C77.3596 37.8213 79.7558 35.5663 79.7558 32.5051C79.7558 29.4251 77.3596 27.1888 74.4183 27.1888ZM74.4183 35.7288C72.8071 35.7288 71.4183 34.4001 71.4183 32.5063C71.4183 30.5926 72.8083 29.2838 74.4183 29.2838C76.0296 29.2838 77.4183 30.5926 77.4183 32.5063C77.4196 34.3988 76.0296 35.7288 74.4183 35.7288ZM60.5708 28.8213V31.0763H65.9683C65.8071 32.3451 65.3846 33.2713 64.7396 33.9151C63.9546 34.7001 62.7258 35.5663 60.5708 35.5663C57.2483 35.5663 54.6508 32.8876 54.6508 29.5651C54.6508 26.2426 57.2483 23.5638 60.5708 23.5638C62.3633 23.5638 63.6721 24.2688 64.6383 25.1751L66.2296 23.5838C64.8796 22.2951 63.0883 21.3088 60.5708 21.3088C56.0196 21.3088 52.1933 25.0138 52.1933 29.5651C52.1933 34.1163 56.0196 37.8213 60.5708 37.8213C63.0271 37.8213 64.8808 37.0151 66.3296 35.5051C67.8196 34.0151 68.2833 31.9201 68.2833 30.2288C68.2833 29.7063 68.2433 29.2226 68.1621 28.8201H60.5708V28.8213ZM117.206 30.5726C116.764 29.3851 115.414 27.1888 112.655 27.1888C109.916 27.1888 107.64 29.3438 107.64 32.5051C107.64 35.4851 109.896 37.8213 112.916 37.8213C115.352 37.8213 116.762 36.3313 117.347 35.4651L115.535 34.2563C114.931 35.1426 114.105 35.7263 112.916 35.7263C111.729 35.7263 110.882 35.1826 110.339 34.1151L117.447 31.1751L117.206 30.5726ZM109.956 32.3451C109.896 30.2901 111.547 29.2438 112.736 29.2438C113.662 29.2438 114.447 29.7076 114.71 30.3713L109.956 32.3451ZM104.177 37.5001H106.512V21.8738H104.177V37.5001ZM100.35 28.3776H100.27C99.7458 27.7526 98.7383 27.1888 97.4708 27.1888C94.8121 27.1888 92.3758 29.5251 92.3758 32.5263C92.3758 35.5063 94.8121 37.8226 97.4708 37.8226C98.7396 37.8226 99.7458 37.2588 100.27 36.6151H100.35V37.3801C100.35 39.4138 99.2621 40.5013 97.5108 40.5013C96.0808 40.5013 95.1946 39.4751 94.8321 38.6088L92.7983 39.4551C93.3821 40.8638 94.9321 42.5963 97.5108 42.5963C100.25 42.5963 102.566 40.9851 102.566 37.0576V27.5126H100.351V28.3776H100.35ZM97.6721 35.7288C96.0608 35.7288 94.7121 34.3788 94.7121 32.5263C94.7121 30.6526 96.0608 29.2838 97.6721 29.2838C99.2621 29.2838 100.511 30.6526 100.511 32.5263C100.511 34.3788 99.2621 35.7288 97.6721 35.7288ZM128.149 21.8738H122.56V37.5001H124.891V31.5801H128.147C130.732 31.5801 133.275 29.7088 133.275 26.7276C133.275 23.7463 130.734 21.8738 128.149 21.8738ZM128.209 29.4051H124.891V24.0488H128.209C129.952 24.0488 130.942 25.4926 130.942 26.7276C130.942 27.9376 129.952 29.4051 128.209 29.4051ZM142.624 27.1613C140.935 27.1613 139.186 27.9051 138.462 29.5538L140.532 30.4176C140.975 29.5538 141.8 29.2713 142.664 29.2713C143.87 29.2713 145.096 29.9951 145.116 31.2813V31.4426C144.694 31.2013 143.789 30.8401 142.684 30.8401C140.452 30.8401 138.18 32.0663 138.18 34.3576C138.18 36.4488 140.01 37.7951 142.06 37.7951C143.627 37.7951 144.492 37.0913 145.035 36.2663H145.115V37.4726H147.367V31.4813C147.369 28.7088 145.296 27.1613 142.624 27.1613ZM142.341 35.7251C141.579 35.7251 140.512 35.3426 140.512 34.3976C140.512 33.1913 141.84 32.7288 142.986 32.7288C144.01 32.7288 144.494 32.9501 145.116 33.2513C144.935 34.7001 143.689 35.7251 142.341 35.7251ZM155.57 27.5026L152.896 34.2776H152.816L150.041 27.5026H147.529L151.69 36.9713L149.317 42.2388H151.75L158.164 27.5026H155.57ZM134.562 37.5001H136.894V21.8738H134.562V37.5001Z" fill="#1C1C1E"/>
<path d="M60.163 12.8037C60.163 13.8512 59.853 14.685 59.2318 15.3075C58.5268 16.0475 57.6068 16.4175 56.4768 16.4175C55.3943 16.4175 54.473 16.0425 53.7168 15.2925C52.9593 14.5412 52.5805 13.6112 52.5805 12.5012C52.5805 11.39 52.9593 10.46 53.7168 9.70999C54.473 8.95874 55.3943 8.58374 56.4768 8.58374C57.0143 8.58374 57.528 8.68874 58.0155 8.89749C58.5043 9.10749 58.8955 9.38624 59.188 9.73499L58.5293 10.395C58.033 9.80124 57.3493 9.50499 56.4755 9.50499C55.6855 9.50499 55.003 9.78249 54.4268 10.3375C53.8505 10.8925 53.563 11.6137 53.563 12.5C53.563 13.3862 53.8505 14.1075 54.4268 14.6625C55.003 15.2175 55.6855 15.495 56.4755 15.495C57.313 15.495 58.0118 15.2162 58.5705 14.6575C58.933 14.2937 59.143 13.7875 59.1993 13.1387H56.4755V12.2375H60.1093C60.1468 12.4337 60.163 12.6225 60.163 12.8037Z" fill="#1C1C1E"/>
<path d="M65.9257 9.67131H62.5107V12.0488H65.5907V12.9501H62.5107V15.3276H65.9257V16.2501H61.5469V8.75006H65.9257V9.67131Z" fill="#1C1C1E"/>
<path d="M69.9893 16.2501H69.0255V9.67131H66.9305V8.75006H72.0843V9.67131H69.9893V16.2501Z" fill="#1C1C1E"/>
<path d="M75.813 16.2501V8.75006H76.7767V16.2501H75.813Z" fill="#1C1C1E"/>
<path d="M81.0507 16.2501H80.0869V9.67131H77.9919V8.75006H83.1457V9.67131H81.0507V16.2501Z" fill="#1C1C1E"/>
<path d="M92.9016 15.2813C92.1641 16.0388 91.2479 16.4175 90.1516 16.4175C89.0554 16.4175 88.1391 16.0388 87.4029 15.2813C86.6654 14.5238 86.2979 13.5963 86.2979 12.5C86.2979 11.4038 86.6654 10.4763 87.4029 9.7188C88.1391 8.9613 89.0554 8.5813 90.1516 8.5813C91.2416 8.5813 92.1566 8.96255 92.8966 9.7238C93.6366 10.485 94.0066 11.41 94.0066 12.5C94.0066 13.5963 93.6379 14.5238 92.9016 15.2813ZM88.1141 14.6525C88.6691 15.215 89.3479 15.495 90.1516 15.495C90.9554 15.495 91.6354 15.2138 92.1891 14.6525C92.7441 14.09 93.0229 13.3725 93.0229 12.5C93.0229 11.6275 92.7441 10.91 92.1891 10.3475C91.6354 9.78505 90.9554 9.50505 90.1516 9.50505C89.3479 9.50505 88.6691 9.7863 88.1141 10.3475C87.5604 10.91 87.2816 11.6275 87.2816 12.5C87.2816 13.3725 87.5604 14.09 88.1141 14.6525Z" fill="#1C1C1E"/>
<path d="M95.3592 16.2501V8.75006H96.5317L100.177 14.5838H100.218L100.177 13.1388V8.75006H101.141V16.2501H100.134L96.3204 10.1326H96.2792L96.3204 11.5776V16.2501H95.3592Z" fill="#1C1C1E"/>
<path d="M60.163 12.8037C60.163 13.8512 59.853 14.685 59.2318 15.3075C58.5268 16.0475 57.6068 16.4175 56.4768 16.4175C55.3943 16.4175 54.473 16.0425 53.7168 15.2925C52.9593 14.5412 52.5805 13.6112 52.5805 12.5012C52.5805 11.39 52.9593 10.46 53.7168 9.70999C54.473 8.95874 55.3943 8.58374 56.4768 8.58374C57.0143 8.58374 57.528 8.68874 58.0155 8.89749C58.5043 9.10749 58.8955 9.38624 59.188 9.73499L58.5293 10.395C58.033 9.80124 57.3493 9.50499 56.4755 9.50499C55.6855 9.50499 55.003 9.78249 54.4268 10.3375C53.8505 10.8925 53.563 11.6137 53.563 12.5C53.563 13.3862 53.8505 14.1075 54.4268 14.6625C55.003 15.2175 55.6855 15.495 56.4755 15.495C57.313 15.495 58.0118 15.2162 58.5705 14.6575C58.933 14.2937 59.143 13.7875 59.1993 13.1387H56.4755V12.2375H60.1093C60.1468 12.4337 60.163 12.6225 60.163 12.8037Z" stroke="#1C1C1E" stroke-width="0.2" stroke-miterlimit="10"/>
<path d="M65.9257 9.67131H62.5107V12.0488H65.5907V12.9501H62.5107V15.3276H65.9257V16.2501H61.5469V8.75006H65.9257V9.67131Z" stroke="#1C1C1E" stroke-width="0.2" stroke-miterlimit="10"/>
<path d="M69.9893 16.2501H69.0255V9.67131H66.9305V8.75006H72.0843V9.67131H69.9893V16.2501Z" stroke="#1C1C1E" stroke-width="0.2" stroke-miterlimit="10"/>
<path d="M75.813 16.2501V8.75006H76.7767V16.2501H75.813Z" stroke="#1C1C1E" stroke-width="0.2" stroke-miterlimit="10"/>
<path d="M81.0507 16.2501H80.0869V9.67131H77.9919V8.75006H83.1457V9.67131H81.0507V16.2501Z" stroke="#1C1C1E" stroke-width="0.2" stroke-miterlimit="10"/>
<path d="M92.9016 15.2813C92.1641 16.0388 91.2479 16.4175 90.1516 16.4175C89.0554 16.4175 88.1391 16.0388 87.4029 15.2813C86.6654 14.5238 86.2979 13.5963 86.2979 12.5C86.2979 11.4038 86.6654 10.4763 87.4029 9.7188C88.1391 8.9613 89.0554 8.5813 90.1516 8.5813C91.2416 8.5813 92.1566 8.96255 92.8966 9.7238C93.6366 10.485 94.0066 11.41 94.0066 12.5C94.0066 13.5963 93.6379 14.5238 92.9016 15.2813ZM88.1141 14.6525C88.6691 15.215 89.3479 15.495 90.1516 15.495C90.9554 15.495 91.6354 15.2138 92.1891 14.6525C92.7441 14.09 93.0229 13.3725 93.0229 12.5C93.0229 11.6275 92.7441 10.91 92.1891 10.3475C91.6354 9.78505 90.9554 9.50505 90.1516 9.50505C89.3479 9.50505 88.6691 9.7863 88.1141 10.3475C87.5604 10.91 87.2816 11.6275 87.2816 12.5C87.2816 13.3725 87.5604 14.09 88.1141 14.6525Z" stroke="#1C1C1E" stroke-width="0.2" stroke-miterlimit="10"/>
<path d="M95.3592 16.2501V8.75006H96.5317L100.177 14.5838H100.218L100.177 13.1388V8.75006H101.141V16.2501H100.134L96.3204 10.1326H96.2792L96.3204 11.5776V16.2501H95.3592Z" stroke="#1C1C1E" stroke-width="0.2" stroke-miterlimit="10"/>
<g filter="url(#filter0_dd_1_36)">
<path d="M13.9357 9.42255C13.5719 9.80755 13.3569 10.405 13.3569 11.1788V38.8238C13.3569 39.5988 13.5719 40.195 13.9357 40.58L14.0282 40.67L29.5144 25.1838V25.0013V24.8188L14.0282 9.3313L13.9357 9.42255Z" fill="url(#paint0_linear_1_36)"/>
<path d="M34.6759 30.3475L29.5146 25.1837V25.0012V24.8187L34.6771 19.6563L34.7934 19.7225L40.9096 23.1975C42.6559 24.19 42.6559 25.8137 40.9096 26.8075L34.7934 30.2825L34.6759 30.3475Z" fill="url(#paint1_linear_1_36)"/>
<g filter="url(#filter1_d_1_36)">
<path d="M34.793 30.2815L29.513 25.0015L13.9355 40.5802C14.5105 41.1902 15.4618 41.2652 16.533 40.6577L34.793 30.2815Z" fill="url(#paint2_linear_1_36)"/>
</g>
<path d="M34.793 19.7214L16.533 9.34636C15.4618 8.73761 14.5105 8.81386 13.9355 9.42386L29.5143 25.0026L34.793 19.7214Z" fill="url(#paint3_linear_1_36)"/>
</g>
<path d="M7.89062 1H162.641V-1H7.89062V1ZM168.641 7V43H170.641V7H168.641ZM162.641 49H7.89062V51H162.641V49ZM1.89062 43V7H-0.109375V43H1.89062ZM7.89062 49C4.57691 49 1.89062 46.3137 1.89062 43H-0.109375C-0.109375 47.4183 3.47234 51 7.89062 51V49ZM168.641 43C168.641 46.3137 165.955 49 162.641 49V51C167.059 51 170.641 47.4183 170.641 43H168.641ZM162.641 1C165.955 1 168.641 3.68629 168.641 7H170.641C170.641 2.58172 167.059 -1 162.641 -1V1ZM7.89062 -1C3.47234 -1 -0.109375 2.58172 -0.109375 7H1.89062C1.89062 3.68629 4.57691 1 7.89062 1V-1Z" fill="#EDEDED"/>
</g>
</g>
</g>
<defs>
<filter id="filter0_dd_1_36" x="13.3569" y="8.77627" width="28.8624" height="32.451" filterUnits="userSpaceOnUse" color-interpolation-filters="sRGB">
<feFlood flood-opacity="0" result="BackgroundImageFix"/>
<feColorMatrix in="SourceAlpha" type="matrix" values="0 0 0 0 0 0 0 0 0 0 0 0 0 0 0 0 0 0 127 0" result="hardAlpha"/>
<feOffset dy="-0.15"/>
<feComposite in2="hardAlpha" operator="out"/>
<feColorMatrix type="matrix" values="0 0 0 0 0 0 0 0 0 0 0 0 0 0 0 0 0 0 0.12 0"/>
<feBlend mode="normal" in2="BackgroundImageFix" result="effect1_dropShadow_1_36"/>
<feColorMatrix in="SourceAlpha" type="matrix" values="0 0 0 0 0 0 0 0 0 0 0 0 0 0 0 0 0 0 127 0" result="hardAlpha"/>
<feOffset dy="0.15"/>
<feComposite in2="hardAlpha" operator="out"/>
<feColorMatrix type="matrix" values="0 0 0 0 1 0 0 0 0 1 0 0 0 0 1 0 0 0 0.25 0"/>
<feBlend mode="normal" in2="effect1_dropShadow_1_36" result="effect2_dropShadow_1_36"/>
<feBlend mode="normal" in="SourceGraphic" in2="effect2_dropShadow_1_36" result="shape"/>
</filter>
<filter id="filter1_d_1_36" x="13.9355" y="24.8515" width="20.8575" height="16.2258" filterUnits="userSpaceOnUse" color-interpolation-filters="sRGB">
<feFlood flood-opacity="0" result="BackgroundImageFix"/>
<feColorMatrix in="SourceAlpha" type="matrix" values="0 0 0 0 0 0 0 0 0 0 0 0 0 0 0 0 0 0 127 0" result="hardAlpha"/>
<feOffset dy="-0.15"/>
<feComposite in2="hardAlpha" operator="out"/>
<feColorMatrix type="matrix" values="0 0 0 0 0 0 0 0 0 0 0 0 0 0 0 0 0 0 0.08 0"/>
<feBlend mode="normal" in2="BackgroundImageFix" result="effect1_dropShadow_1_36"/>
<feBlend mode="normal" in="SourceGraphic" in2="effect1_dropShadow_1_36" result="shape"/>
</filter>
<linearGradient id="paint0_linear_1_36" x1="28.1417" y1="10.8863" x2="7.16418" y2="31.8638" gradientUnits="userSpaceOnUse">
<stop stop-color="#00A0FF"/>
<stop offset="0.0066" stop-color="#00A1FF"/>
<stop offset="0.2601" stop-color="#00BEFF"/>
<stop offset="0.5122" stop-color="#00D2FF"/>
<stop offset="0.7604" stop-color="#00DFFF"/>
<stop offset="1" stop-color="#00E3FF"/>
</linearGradient>
<linearGradient id="paint1_linear_1_36" x1="43.1827" y1="25.0013" x2="12.9379" y2="25.0013" gradientUnits="userSpaceOnUse">
<stop stop-color="#FFE000"/>
<stop offset="0.4087" stop-color="#FFBD00"/>
<stop offset="0.7754" stop-color="#FFA500"/>
<stop offset="1" stop-color="#FF9C00"/>
</linearGradient>
<linearGradient id="paint2_linear_1_36" x1="31.9256" y1="27.8688" x2="3.47754" y2="56.317" gradientUnits="userSpaceOnUse">
<stop stop-color="#FF3A44"/>
<stop offset="1" stop-color="#C31162"/>
</linearGradient>
<linearGradient id="paint3_linear_1_36" x1="10.0123" y1="0.221119" x2="22.7151" y2="12.924" gradientUnits="userSpaceOnUse">
<stop stop-color="#32A071"/>
<stop offset="0.0685" stop-color="#2DA771"/>
<stop offset="0.4762" stop-color="#15CF74"/>
<stop offset="0.8009" stop-color="#06E775"/>
<stop offset="1" stop-color="#00F076"/>
</linearGradient>
<clipPath id="clip0_1_36">
<rect width="169" height="50" fill="white" transform="translate(0.890625)"/>
</clipPath>
<clipPath id="clip1_1_36">
<rect width="169" height="50" fill="white" transform="translate(0.890625)"/>
</clipPath>
<clipPath id="clip2_1_36">
<rect width="169" height="50" fill="white" transform="translate(0.890625)"/>
</clipPath>
</defs>
</svg>
