<svg width="208" height="172" viewBox="0 0 208 172" fill="none" xmlns="http://www.w3.org/2000/svg">
<path d="M194.712 132.962C195.15 133.105 195.57 133.156 195.965 133.146L195.964 133.153C197.031 134.19 196.695 135.561 195.743 136.825C195.339 137.36 194.715 137.367 193.967 137.085C192.951 136.71 191.71 135.805 190.519 134.993C188.454 133.591 184.273 129.016 184.273 129.016C180.642 128.306 181.324 124.6 182.272 124.485C183.219 124.377 184.2 126.705 184.2 126.705C184.2 126.705 184.388 124.953 184.865 124.991C185.344 125.023 184.893 126.587 185.698 127.992C186.504 129.397 192.867 132.359 194.712 132.962Z" fill="#E8C8A1"/>
<path d="M61.1971 97.8736H42.1366C38.6387 97.8736 35.8035 100.709 35.8035 104.207V123.26V144.689V163.743C35.8035 167.241 38.6392 170.076 42.1366 170.076H61.19H82.6192H101.673C105.17 170.076 108.006 167.24 108.006 163.743V144.689C113.92 144.689 118.72 139.889 118.72 133.974C118.72 128.06 113.92 123.26 108.006 123.26V104.206C108.006 100.708 105.17 97.873 101.673 97.873H82.6121C82.519 103.702 77.7548 108.402 71.9043 108.402C66.0544 108.402 61.2902 103.702 61.1971 97.8736Z" fill="url(#paint0_linear_1_267)"/>
<path d="M163.793 83.6739L182.368 87.915C185.778 88.6936 189.174 86.5607 189.952 83.1503L194.193 64.575C199.959 65.8914 205.706 62.2872 207.024 56.5142C208.341 50.7483 204.729 45 198.964 43.6831L203.203 25.1149C203.982 21.705 201.848 18.3093 198.438 17.5307L179.856 13.288C179.877 13.2268 179.891 13.1641 179.906 13.1019C181.223 7.33591 177.618 1.58919 171.845 0.270765C166.079 -1.04563 160.331 2.56561 159.014 8.33156C159 8.39429 158.986 8.45703 158.978 8.52128L140.403 4.28017C136.993 3.50156 133.597 5.63451 132.819 9.04491L128.579 27.6131C134.345 28.9295 137.956 34.6778 136.64 40.4442C135.322 46.2172 129.575 49.8214 123.809 48.505L119.568 67.0803C118.789 70.4902 120.922 73.8859 124.333 74.6645L142.901 78.9041C144.217 73.1382 149.965 69.5269 155.732 70.8433C161.505 72.1612 165.109 77.908 163.793 83.6739Z" fill="url(#paint1_linear_1_267)"/>
<path d="M27.7724 71.1819L34.4784 89.016C35.7093 92.2898 39.3615 93.9462 42.6353 92.7153L60.4694 86.0088C62.5513 91.5451 68.727 94.3509 74.2699 92.2665C79.8061 90.1847 82.6094 84.0023 80.5276 78.4661L98.3551 71.7627C101.629 70.5318 103.285 66.8795 102.054 63.6052L95.3454 45.7645C95.4081 45.7483 95.4683 45.7261 95.5285 45.7033C101.065 43.6215 103.871 37.4457 101.786 31.9029C99.7044 26.3666 93.5221 23.5633 87.9858 25.6452C87.9256 25.6679 87.8654 25.6907 87.8077 25.7195L81.1018 7.8854C79.8709 4.61161 76.2187 2.95523 72.9449 4.18663L55.1173 10.8901C57.1992 16.4263 54.3954 22.6086 48.8596 24.6905C43.3168 26.7749 37.141 23.9685 35.0592 18.4328L17.2255 25.1392C13.9518 26.3701 12.2954 30.0224 13.5268 33.2962L20.2302 51.1237C25.7665 49.0419 31.9488 51.8457 34.0306 57.3814C36.1145 62.9248 33.3087 69.1005 27.7724 71.1819Z" fill="#FFF510"/>
<path d="M143.807 98.642H138.5C138.5 98.642 138.678 97.7349 138.871 96.6634C138.871 96.6634 138.871 96.6634 138.871 96.6563C138.971 96.3851 141.335 96.5419 141.335 96.5419L143.807 98.642Z" fill="#26363D"/>
<path d="M132.565 87.2534C129.949 87.5104 127.952 87.2559 127.952 87.2559C127.952 87.4057 127.952 87.556 127.959 87.7057C127.988 88.6417 128.281 89.5629 128.795 90.3415C129.26 91.0417 129.752 92.0343 129.638 92.9273C129.459 94.3418 128.581 95.1847 125.417 93.4347L125.499 96.2886C125.499 96.2886 129.881 98.9993 132.003 97.8135C134.092 96.6529 134.123 94.5316 134.063 90.5176L132.565 87.2534Z" fill="#3A4D57"/>
<path d="M126.814 73.1497C126.821 73.264 125.853 74.7651 127.223 76.2798C121.551 77.1869 121.643 73.264 121.643 73.264C122.65 73.5139 124.343 73.6713 126.6 73.1998C126.671 73.1851 126.742 73.1709 126.814 73.1497Z" fill="#EED7BA"/>
<path d="M153.053 70.5765C153.182 70.8765 152.164 72.114 150.243 72.2779C150.243 72.2779 147.7 77.9139 145.65 78.2852C144.478 78.5068 143.05 78.4208 141.685 78.1137C143.192 76.4781 142.828 74.9138 142.828 74.9138C143.542 75.1637 144.243 75.2922 144.786 75.1637C146.15 74.8348 148.057 72.0209 148.593 71.4133C149.128 70.8062 150.65 69.3421 151.036 69.5561C151.421 69.763 150.035 70.7561 150.229 70.9489C150.421 71.1421 152.917 70.2836 153.053 70.5765Z" fill="#EED7BA"/>
<path d="M142.145 67.9565C141.897 69.0493 141.24 71.7732 139.819 71.8521C139.039 71.8941 138.172 71.5966 138.172 71.5966C138.172 71.5966 137.934 71.8845 137.608 72.3864C136.586 71.9078 135.18 71.2926 134.695 71.1428C134.645 71.1287 134.595 71.114 134.537 71.1069C134.899 70.5802 135.195 70.1927 135.687 69.2568C135.859 69.4424 136.609 70.1927 137.523 70.2711C138.323 70.3354 138.946 69.8011 138.946 69.5866C138.946 69.1652 139.252 68.3496 139.923 68.3638C140.588 68.378 140.202 69.5998 140.202 69.6564C140.202 69.7207 140.667 69.6564 140.667 69.6564C141.009 68.5495 141.502 68.1422 142.145 67.9565Z" fill="#EED7BA"/>
<path d="M97.3562 49.9899C97.4776 50.7614 97.5348 55.5985 94.0202 61.1343C94.0202 61.1343 98.0974 71.4155 98.0331 73.68C98.0331 73.68 97.9117 73.7731 97.683 73.937C96.4258 74.8229 91.9399 77.6515 87.204 76.8941L84.9627 66.1833L73.191 67.312L72.5338 65.9405C72.6841 65.8904 82.3127 61.926 87.0699 59.4976C87.9628 59.0403 88.6914 58.6335 89.1416 58.3259C89.2418 58.2546 89.3415 58.1832 89.4416 58.1114C92.17 56.1899 94.4917 53.8111 95.8061 49.397C95.8061 49.397 97.2348 49.2189 97.3562 49.9899Z" fill="#FA8B65"/>
<path d="M70.6039 65.2432C70.9469 64.9862 72.5345 65.9403 72.5345 65.9403L73.1916 67.3119C71.8565 68.1036 71.2818 68.2407 70.1248 68.2908C68.9606 68.3338 68.5888 67.8411 68.6961 67.1834C68.7962 66.5333 71.1973 66.0815 71.1973 66.0815C70.7101 65.7536 70.2614 65.4936 70.6039 65.2432Z" fill="#EED7BA"/>
<path d="M95.8502 46.6149C96.0926 46.5825 96.4007 47.7618 96.4007 47.7618C96.4007 47.7618 96.7366 46.7115 97.065 47.0475C97.4009 47.3758 98.2933 49.0332 97.3579 49.9904C97.2365 49.2189 95.8077 49.3975 95.8077 49.3975C95.7718 49.276 95.3534 46.8051 95.8502 46.6149Z" fill="#EED7BA"/>
<path d="M86.4159 55.0912C87.0872 55.3269 86.9729 56.2179 87.1373 56.4966C87.3017 56.7825 87.1803 57.384 88.7876 57.0557C88.7876 57.1341 89.4084 58.026 89.4438 58.112C89.3436 58.1833 89.244 58.2547 89.1438 58.3265C88.694 58.6336 87.965 59.0409 87.0721 59.4982C86.5145 58.3093 86.1493 58.2284 86.1493 58.2284C86.1493 58.2284 85.0782 58.6058 84.4276 58.1737C83.9197 57.8368 83.6202 56.8664 83.5296 56.3747C83.3222 55.2601 83.5296 53.8345 83.5296 53.8345C83.6009 53.8557 83.6723 53.8846 83.737 53.8987C84.8298 54.1846 85.1941 55.5844 85.2012 56.1344H85.5224C85.5224 56.1344 85.0185 54.3596 86.4159 55.0912Z" fill="#EED7BA"/>
<path d="M88.4195 95.524C88.4195 95.524 88.4195 97.4586 88.4195 97.8729C88.0856 97.9448 82.8838 97.8729 82.8838 97.8729L86.069 95.4668L88.4195 95.524Z" fill="#26363D"/>
<path d="M99.8496 95.1021C99.8496 95.1021 97.2882 98.0769 95.1218 97.9044C95.0505 97.9616 96.935 94.9018 97.021 94.4449L98.8924 93.2449L99.8496 95.1021Z" fill="#26363D"/>
<path d="M87.2059 76.8946C91.9418 77.6519 96.4278 74.8234 97.685 73.9375C98.7343 76.6295 97.8479 80.2923 97.4138 83.0971C96.7253 87.5462 99.051 93.5206 99.051 93.5206L97.0207 94.4454C97.0349 94.367 97.042 94.3169 97.042 94.3169C97.042 94.3169 94.1845 89.9883 93.3346 86.9952C92.4846 84.0022 92.7558 78.8307 92.7558 78.8307C89.6272 83.9167 88.4201 95.524 88.4201 95.524L86.0701 95.4669C86.0701 95.4669 85.6846 89.6311 85.7772 84.6023C85.8632 79.5734 87.2059 76.8946 87.2059 76.8946Z" fill="#3A4D57"/>
<path d="M86.6784 56.5127C86.514 56.234 86.8206 55.1528 86.2843 55.0451C85.398 54.6368 85.5229 56.1343 85.5229 56.1343H85.2017C85.1946 55.5844 84.8303 54.184 83.7375 53.8987C83.6733 53.8845 83.602 53.8557 83.5301 53.8344C82.4444 53.4342 80.9444 52.0915 81.9087 51.9488C82.9372 51.7986 85.9302 51.0847 87.4874 52.0561C88.9303 52.9491 88.8018 56.0847 88.7876 57.0561C87.1798 57.3844 86.8429 56.7986 86.6784 56.5127Z" fill="#845E40"/>
<path d="M19.3403 144.142L16.919 142.757L14.231 146.497L14.6646 148.178C23.2202 155.362 21.1768 167.467 21.1768 167.467H24.3175C24.3175 167.467 25.6425 164.778 25.2089 156.965C24.7612 148.88 19.3403 144.142 19.3403 144.142Z" fill="#262626"/>
<path d="M3.78164 167.417L5.81797 169.524C5.99301 169.705 5.84022 170.005 5.59131 169.97L0.156738 169.209L1.2303 167.279" fill="#26363D"/>
<path d="M21.4615 167.468L21.1094 169.783H26.1711C26.4428 169.783 26.5606 169.439 26.3456 169.272L24.0179 167.468" fill="#26363D"/>
<path d="M8.42148 143.404C8.2009 145.149 7.19413 150.47 5.56709 155.353C3.53988 161.438 0.837769 167.098 0.837769 167.278L4.23653 167.716C4.23653 167.716 7.49565 162.902 9.83654 158.989C12.1713 155.077 14.6686 148.177 14.6686 148.177C14.6686 148.177 17.1334 146.748 17.1754 144.141C17.2174 141.534 13.2125 142.124 13.2125 142.124L8.42148 143.404Z" fill="#262626"/>
<path d="M23.2217 133.459C22.863 133.31 22.5108 133.159 22.185 133.003C22.0221 131.047 21.4353 129.117 20.2808 128.138C20.6592 128.399 22.1785 129.41 23.4696 129.618C23.6259 129.645 23.8672 129.69 24.1738 129.742C24.2001 129.749 24.4283 132.846 23.2545 133.375L23.2217 133.459Z" fill="#049B9B"/>
<path d="M20.1896 128.067C20.2219 128.086 20.2483 128.112 20.2806 128.138C21.6795 129.257 21.9552 131.086 21.9937 132.767C22.065 135.869 21.3122 138.738 20.2791 141.634C20.0626 142.241 19.8395 142.846 19.6098 143.448C19.5774 143.533 19.4332 144.11 19.3416 144.141C15.6378 145.413 9.68367 143.776 8.41887 143.404C8.26254 143.352 8.17755 143.326 8.17755 143.326C8.17755 143.326 8.37992 140.11 10.5382 134.444C12.6969 128.777 16.8965 126.82 17.0205 126.697C17.0205 126.697 18.5398 128.549 19.4919 127.851C19.4919 127.851 19.4985 127.792 19.5182 127.701L19.629 127.721C19.8309 127.813 20.0135 127.93 20.1896 128.067Z" fill="#00ACB3"/>
<path d="M20.8284 123.867C20.8284 123.867 20.626 122.869 20.1176 122.869C19.6091 122.869 18.8917 123.234 19.772 124.252C19.772 124.252 19.3223 125.204 17.5677 125.263C17.7175 124.78 17.8414 124.258 17.8546 123.828C17.8743 122.706 17.7504 120.156 19.5894 119.628C21.4218 119.1 22.5435 119.524 23.3585 120.156C24.1735 120.789 24.9041 121.03 25.3346 121.056C25.3346 121.056 24.6501 122.093 23.7566 122.374C23.5153 122.446 23.2674 122.471 23.0069 122.4C21.7876 122.074 21.52 122.224 21.1744 123.046C20.8284 123.867 20.8284 123.867 20.8284 123.867Z" fill="#845E40"/>
<path d="M35.8083 132.279C35.8083 132.364 29.9786 134.581 25.8964 134.464C25.1658 134.216 24.4489 133.955 23.7574 133.674C23.5747 133.603 23.3987 133.531 23.2226 133.459L23.255 133.374C24.4287 132.846 24.2005 129.749 24.1742 129.742C26.7827 130.225 34.1777 131.613 35.8078 130.811L35.8083 132.279Z" fill="#E5CBAE"/>
<path d="M20.1192 122.869C20.6277 122.869 20.83 123.867 20.83 123.867C20.83 123.867 20.83 123.867 21.1756 123.045C21.5211 122.224 21.7888 122.073 23.008 122.4C23.2691 122.472 23.517 122.445 23.7578 122.373C23.7644 122.693 23.7057 123.554 23.0793 125.08C22.2643 127.082 20.6469 126.632 20.145 126.697C19.7605 126.749 19.5845 127.408 19.5192 127.701C19.4995 127.792 19.4929 127.851 19.4929 127.851C18.5408 128.549 17.0215 126.697 17.0215 126.697C17.0215 126.697 17.3281 126.032 17.5694 125.262C19.3234 125.204 19.7737 124.251 19.7737 124.251C18.8934 123.235 19.6108 122.869 20.1192 122.869Z" fill="#EED7BA"/>
<path d="M23.6259 131.749C23.4503 131.661 23.2819 131.574 23.1129 131.487C22.7694 131.305 22.4319 131.124 22.1213 130.938C20.9951 130.286 20.0597 129.626 19.4824 128.99C19.0058 128.469 18.4134 128.068 17.7233 127.953C16.9427 127.824 16.0133 127.962 15.427 129.088C14.2699 131.307 15.3141 133.006 17.4734 133.889C18.3072 134.227 19.6438 134.721 21.1954 135.229C21.4686 135.319 21.7489 135.41 22.0358 135.495C22.1188 132.196 23.6259 131.749 23.6259 131.749Z" fill="#0ABFBF"/>
<path d="M33.9749 135.706C35.0616 135.778 35.9601 134.033 35.9601 134.609C35.9601 135.113 35.6393 135.693 35.5619 135.824C35.7678 135.574 37.5836 133.388 38.1047 134.718C38.6576 136.13 36.1473 137.677 36.0243 137.804C35.9014 137.93 32.7126 137.641 28.9648 137.164C26.9122 136.906 24.3235 136.213 22.0377 135.495C22.1207 132.196 23.6278 131.75 23.6278 131.75C24.2911 132.091 24.9817 132.416 25.6869 132.728C29.4059 134.388 33.3759 135.665 33.9749 135.706Z" fill="#EED7BA"/>
<path d="M116.451 145.254V164.315C116.451 167.813 119.287 170.648 122.784 170.648H141.838H163.267H182.32C185.818 170.648 188.654 167.812 188.654 164.315V145.261V123.832V104.779C188.654 101.281 185.818 98.4458 182.32 98.4458H163.267C163.267 92.5311 158.467 87.731 152.552 87.731C146.637 87.731 141.837 92.5311 141.837 98.4458H122.784C119.286 98.4458 116.451 101.281 116.451 104.779V123.839C122.28 123.932 126.98 128.697 126.98 134.547C126.98 140.397 122.28 145.162 116.451 145.254Z" fill="url(#paint2_linear_1_267)"/>
<path d="M131.62 87.3275C131.62 87.3275 131.591 90.2887 134.065 90.8386C136.342 91.344 140.305 90.8386 140.305 90.8386C140.305 90.8386 139.156 93.4886 138.687 96.7634C138.687 96.7634 140.034 96.9071 141.45 96.6071C141.45 96.6071 144.205 91.5747 144.289 89.1291C144.374 86.684 138.537 85.6772 138.537 85.6772L131.62 87.3275Z" fill="#3A4D57"/>
<path d="M137.193 72.1925C138.236 72.6781 139.314 73.2068 139.907 73.5281C140.607 73.9065 141.782 74.4337 142.867 74.8055C142.867 74.8055 143.193 76.6795 141.686 78.3156C140.643 78.0798 139.608 77.7778 138.836 77.5987C138.836 77.5987 138.612 82.4576 138.536 85.6772C133.75 87.9989 127.561 87.4535 127.561 87.4535C127.518 82.6817 129.044 76.211 129.044 76.211C128.436 76.2904 127.738 76.381 127.326 76.382C125.719 74.8678 126.821 73.264 126.814 73.1497C129.595 71.9264 130.374 71.0562 131.619 70.9084C132.466 70.8078 133.493 70.9069 134.535 71.1068C134.592 71.1139 134.643 71.128 134.693 71.1427C135.178 71.2919 136.171 71.7139 137.193 72.1925Z" fill="#00ACB3"/>
<path d="M125.469 93.5059C124.596 93.2955 123.964 93.3587 123.869 93.3744C123.774 93.3901 123.769 96.0998 123.801 96.9062C123.828 97.5993 124.205 98.2307 125.182 98.4462C125.385 98.4913 125.541 98.2722 125.453 98.0835C125.244 97.6378 125.049 96.9108 125.496 96.1995L125.469 93.5059Z" fill="#26363D"/>
<path d="M189.741 128.394C189.741 128.394 189.552 129.673 189.828 130.617C190.104 131.561 190.322 131.779 190.51 131.837C190.699 131.895 191.324 131.895 191.324 131.895L191.919 133.406L193.88 131.547L192.413 127.741L189.741 128.394Z" fill="#EED7BA"/>
<path d="M187.515 169.11C187.324 170.2 187.245 170.954 187.245 170.954H182.441L184.377 169.425C184.371 169.432 185.578 170.114 187.508 169.11H187.515V169.11Z" fill="#30C4F3"/>
<path d="M196.719 169.576C196.719 169.576 197.946 170.167 199.554 169.11C199.64 169.271 200.075 170.467 200.092 170.578C200.111 170.705 200.046 170.744 199.944 170.779C199.926 170.786 199.906 170.793 199.884 170.799C199.547 170.907 196.25 171.017 195.519 171.05C195.406 171.055 195.293 171.058 195.181 171.061C195.123 171.063 195.064 171.061 195.006 171.064C194.955 171.066 194.906 171.074 194.858 171.05C194.819 171.031 194.836 171.002 194.853 170.966C194.89 170.893 194.954 170.838 195.014 170.784C195.176 170.638 195.364 170.521 195.543 170.397C195.724 170.27 195.906 170.144 196.087 170.017C196.297 169.87 196.507 169.724 196.719 169.576Z" fill="#30C4F3"/>
<path d="M188.764 138.08C189.558 138.172 190.162 138.015 190.425 137.398C191.041 135.941 191.035 134.53 189.749 133.782V133.775C190.254 133.651 190.674 133.434 190.996 133.23C191.462 132.941 191.718 132.666 191.718 132.666C191.58 133.282 191.363 133.867 191.389 134.142C191.442 134.635 192.157 134.582 192.288 135.015C192.426 135.455 191.908 136 192.098 136.603C192.288 137.207 192.754 137.699 194.999 137.863C196.64 137.981 197.815 136.872 198.438 135.776C199.147 136.833 199.527 138.704 199.751 140.554C200.026 142.805 200.053 145.03 200.112 145.765C198.429 149.558 189.578 146.874 189.578 146.874C189.978 143.468 188.765 138.106 188.765 138.106V138.08H188.764Z" fill="#F79663"/>
<path d="M193.437 155.118C193.437 155.118 192.202 156.759 190.179 161.419C188.969 164.208 187.845 167.201 187.516 169.11H187.51C185.58 170.115 184.373 169.432 184.379 169.426L185.357 168.658C185.357 168.658 185.304 164.224 188.579 153.946C189.512 154.28 191.337 155.099 193.437 155.118Z" fill="#EED7BA"/>
<path d="M199.555 169.11H199.548C197.947 170.167 196.719 169.576 196.719 169.576L197.395 169.097C197.395 169.097 194.048 166.072 193.989 155.118V155.111C195.636 155.079 197.349 154.816 198.734 154.14C198.662 154.173 196.503 163.531 199.555 169.11Z" fill="#EED7BA"/>
<path d="M188.487 133.9C188.947 133.933 189.367 133.88 189.748 133.776V133.782C191.034 134.531 191.26 135.815 190.423 137.399C190.11 137.992 189.557 138.173 188.763 138.081C187.686 137.963 186.262 137.386 184.91 136.887C182.568 136.027 177.403 132.601 177.403 132.601C173.666 131.228 174.512 128.943 174.812 128.689C175.346 128.238 176.772 130.376 176.772 130.376C176.772 130.376 176.35 129.157 176.822 129.078C177.295 128.992 177.147 129.939 178.269 131.107C179.392 132.275 186.551 133.763 188.487 133.9Z" fill="#EED7BA"/>
<path d="M189.585 128.486C189.5 128.486 189.414 128.466 189.322 128.413C188.902 128.184 189.256 127.501 189.256 127.501C189.256 127.501 190.032 124.429 193.41 124.764C195.926 125.013 194.972 127.967 196.226 128.623C197.486 129.279 198.142 130.153 197.433 131.845C197.433 131.845 197.959 132.298 198.385 132.915C198.753 133.434 199.048 134.064 198.91 134.635C198.831 134.977 198.674 135.377 198.438 135.777C197.814 136.873 196.64 137.982 194.999 137.864C192.754 137.7 192.288 137.208 192.098 136.604C191.908 136 192.426 135.455 192.288 135.015C192.157 134.582 191.442 134.635 191.389 134.143C191.304 133.348 191.916 132.577 191.586 131.771C191.497 131.555 191.339 131.378 191.199 131.192C190.817 130.68 191.017 130.206 190.907 129.629C190.844 129.305 190.7 128.964 190.488 128.711C190.217 128.387 189.963 128.486 189.585 128.486Z" fill="#845E40"/>
<path d="M189.577 146.875C189.577 146.875 196.232 149.297 200.111 145.766C200.222 147.105 199.412 154.384 199.412 154.384C198.083 154.945 196.418 155.413 193.654 155.224C188.894 154.898 188.502 153.887 187.74 153.578L189.577 146.875Z" fill="#30C4F3"/>
<path d="M141.741 65.6819C141.791 65.6895 141.841 65.6961 141.892 65.7022C142.359 65.7583 143.297 65.8135 143.53 66.3346C143.649 66.6007 143.605 66.9857 143.499 67.2462C143.334 67.656 143.003 67.7774 142.596 67.8513C142.125 67.9368 141.655 68.0835 141.315 68.4372C140.992 68.7736 140.802 69.2158 140.666 69.6559C140.666 69.6559 140.201 69.7202 140.201 69.6559C140.201 69.5987 140.587 68.3775 139.923 68.3633C139.251 68.3491 139.145 69.2173 139.145 69.6387C139.145 69.8532 138.323 70.3344 137.522 70.2701C136.608 70.1917 135.704 69.7202 135.532 69.5345C135.611 69.3771 135.844 68.9345 135.915 68.763C136.421 67.5402 136.761 65.3172 138.36 65.0834C138.704 65.0333 139.055 65.0703 139.397 65.133C140.187 65.2797 140.946 65.5635 141.741 65.6819Z" fill="#845E40"/>
<defs>
<linearGradient id="paint0_linear_1_267" x1="77.262" y1="97.873" x2="136.001" y2="220.5" gradientUnits="userSpaceOnUse">
<stop stop-color="#223FAA"/>
<stop offset="1" stop-color="#0E1944"/>
</linearGradient>
<linearGradient id="paint1_linear_1_267" x1="163.351" y1="-1.16945e-06" x2="241.999" y2="147" gradientUnits="userSpaceOnUse">
<stop stop-color="#F04B00"/>
<stop offset="1" stop-color="#FF9768"/>
</linearGradient>
<linearGradient id="paint2_linear_1_267" x1="152.552" y1="87.731" x2="230.5" y2="223" gradientUnits="userSpaceOnUse">
<stop stop-color="#B123B0"/>
<stop offset="1" stop-color="#4B0F4B"/>
</linearGradient>
</defs>
</svg>
