<svg width="16" height="15" viewBox="0 0 16 15" fill="none" xmlns="http://www.w3.org/2000/svg">
<g clip-path="url(#clip0_1_347)">
<g clip-path="url(#clip1_1_347)">
<g clip-path="url(#clip2_1_347)">
<path d="M6.66853 1.09799C7.08763 -0.191846 8.9124 -0.191841 9.33149 1.09799L10.1553 3.63356C10.3428 4.21039 10.8803 4.60093 11.4868 4.60093H14.1529C15.5091 4.60093 16.073 6.3364 14.9758 7.13356L12.8189 8.70062C12.3282 9.05712 12.1229 9.68904 12.3103 10.2658L13.1342 12.8014C13.5533 14.0913 12.077 15.1638 10.9798 14.3667L8.82291 12.7996C8.33223 12.4431 7.66779 12.4431 7.17711 12.7996L5.02023 14.3667C3.92303 15.1638 2.44676 14.0913 2.86585 12.8014L3.68971 10.2658C3.87713 9.68904 3.67181 9.05712 3.18113 8.70062L1.02424 7.13355C-0.0729571 6.33639 0.490931 4.60093 1.84715 4.60093H4.5132C5.11971 4.60093 5.65725 4.21039 5.84468 3.63356L6.66853 1.09799Z" fill="#FFEA2C"/>
</g>
</g>
</g>
<defs>
<clipPath id="clip0_1_347">
<rect width="16" height="15" fill="white"/>
</clipPath>
<clipPath id="clip1_1_347">
<rect width="16" height="15" fill="white"/>
</clipPath>
<clipPath id="clip2_1_347">
<rect width="16" height="15" fill="white"/>
</clipPath>
</defs>
</svg>
