<svg width="1555" height="71" viewBox="0 0 1555 71" fill="none" xmlns="http://www.w3.org/2000/svg">
<path d="M1547.76 -0.000244141C1545.41 -0.000244141 1543.21 0.219101 1541.85 0.580612C1541.21 0.751945 1537.65 1.68569 1530.91 3.24997C1528.39 3.83593 1528.85 4.69946 1531.95 5.17747C1535.04 5.65549 1539.6 5.56815 1542.13 4.98219C1549.06 3.37164 1552.85 2.37958 1553.62 2.17741C1554.48 1.95124 1555 1.672 1555 1.37046C1555 0.613167 1551.76 -0.000244141 1547.76 -0.000244141ZM7.23511 -0.000244141C6.03126 -0.000244141 4.80933 0.0563049 3.67789 0.177948C0.202102 0.549744 -1.02892 1.38412 0.935263 2.04376C1.26112 2.15341 9.1812 4.79371 25.6912 9.03594C28.0627 9.64418 32.5884 9.77607 35.8107 9.32718C39.0331 8.87828 39.7211 8.02165 37.3496 7.4117C21.4189 3.31682 13.6164 0.721085 13.544 0.695381C12.2134 0.249916 9.76049 -0.000244141 7.23511 -0.000244141ZM1510.24 8.42256C1508.3 8.42256 1506.38 8.56819 1504.95 8.85775C1495.43 10.7887 1485.25 12.7401 1474.69 14.6574C1471.8 15.1799 1471.71 16.0469 1474.47 16.5934C1477.23 17.1383 1481.81 17.1589 1484.7 16.6346C1495.45 14.6831 1505.82 12.6939 1515.52 10.727C1518.24 10.1736 1518.09 9.30664 1515.16 8.79092C1513.78 8.5442 1512.01 8.42256 1510.24 8.42256ZM56.1314 12.7864C54.4931 12.7864 52.8548 12.8909 51.4971 13.1034C48.4286 13.5883 48.0122 14.4518 50.5738 15.0326C59.7883 17.1246 69.5729 19.2183 79.6563 21.252C82.3899 21.8037 86.97 21.8311 89.8846 21.3137C92.7992 20.7963 92.944 19.9293 90.2104 19.3776C80.3171 17.3833 70.7225 15.3307 61.6891 13.2781C60.268 12.9543 58.2042 12.7864 56.1314 12.7864ZM1450.31 19.3674C1448.62 19.3674 1446.92 19.4787 1445.55 19.7049C1434.88 21.4713 1423.73 23.2275 1412.43 24.9272C1409.3 25.3983 1408.78 26.2584 1411.26 26.8512C1413.75 27.444 1418.3 27.5417 1421.43 27.0722C1432.91 25.3469 1444.23 23.5616 1455.06 21.7678C1458.07 21.2692 1458.38 20.4039 1455.75 19.8351C1454.33 19.525 1452.33 19.3674 1450.31 19.3674ZM112.93 24.3121C111.029 24.3121 109.137 24.4525 107.716 24.7318C104.946 25.2767 105.037 26.1436 107.915 26.6679C118.37 28.5714 129.268 30.4527 140.32 32.2568C143.343 32.752 147.914 32.6869 150.521 32.1146C153.128 31.5424 152.793 30.6771 149.769 30.1819C138.917 28.4104 128.218 26.5634 117.953 24.6941C116.55 24.4388 114.74 24.3121 112.93 24.3121ZM1385.24 29.1934C1383.76 29.1934 1382.27 29.279 1380.98 29.4555C1369.48 31.0421 1357.57 32.6098 1345.58 34.1141C1342.25 34.5321 1341.35 35.382 1343.56 36.0125C1345.77 36.643 1350.25 36.816 1353.59 36.3963C1365.74 34.8697 1377.83 33.2797 1389.51 31.6691C1392.74 31.2237 1393.45 30.367 1391.1 29.7553C1389.67 29.3887 1387.47 29.1934 1385.24 29.1934ZM175.829 34.6315C173.674 34.6315 171.547 34.8131 170.117 35.1592C167.655 35.7554 168.216 36.6156 171.366 37.0816C182.835 38.7744 194.692 40.4311 206.622 42.0057C209.899 42.4392 214.406 42.2867 216.696 41.6665C218.986 41.0462 218.181 40.193 214.904 39.7595C203.192 38.2124 191.533 36.5847 180.273 34.9228C178.952 34.7257 177.386 34.6315 175.829 34.6315ZM1315.98 37.9245C1314.7 37.9245 1313.4 37.9897 1312.23 38.1233C1300.03 39.5265 1287.47 40.9023 1274.92 42.2113C1271.42 42.5762 1270.15 43.4089 1272.08 44.072C1274 44.735 1278.4 44.9749 1281.91 44.6117C1294.64 43.2838 1307.37 41.8875 1319.75 40.4654C1323.16 40.0731 1324.25 39.2301 1322.18 38.5842C1320.8 38.1593 1318.42 37.9245 1315.98 37.9245ZM243.96 43.6694C241.552 43.6694 239.198 43.8972 237.823 44.3119C235.695 44.9527 236.718 45.7973 240.104 46.2C252.414 47.6614 265.104 49.0801 277.812 50.4148C281.306 50.7815 285.714 50.5433 287.651 49.882C289.588 49.2206 288.33 48.3862 284.836 48.0195C272.345 46.7071 259.881 45.3142 247.788 43.8784C246.603 43.7379 245.272 43.6694 243.96 43.6694ZM1243.18 45.5506C1242.08 45.5506 1240.98 45.5969 1239.93 45.6963C1227.18 46.9076 1214.08 48.0898 1201.01 49.2069C1197.37 49.5187 1195.75 50.3291 1197.39 51.0179C1199.04 51.7084 1203.32 52.015 1206.96 51.7032C1220.21 50.5707 1233.49 49.3748 1246.42 48.1446C1250 47.8054 1251.44 46.9813 1249.65 46.3062C1248.38 45.8265 1245.83 45.5506 1243.18 45.5506ZM316.58 51.3417C313.91 51.3417 311.348 51.6227 310.09 52.1059C308.325 52.7844 309.791 53.605 313.376 53.9391C326.383 55.1539 339.761 56.3207 353.139 57.4087C356.814 57.7068 361.068 57.3847 362.643 56.6908C364.218 55.9951 362.525 55.1898 358.85 54.8917C345.708 53.8243 332.565 52.6764 319.784 51.4839C318.752 51.388 317.657 51.3417 316.58 51.3417ZM1167.42 52.0545C1166.52 52.0545 1165.59 52.087 1164.7 52.1556C1151.5 53.1733 1137.96 54.1584 1124.45 55.0836C1120.69 55.3406 1118.74 56.1254 1120.1 56.8381C1121.46 57.5491 1125.6 57.9175 1129.37 57.6605C1143.07 56.7233 1156.79 55.7244 1170.16 54.693C1173.86 54.4069 1175.63 53.6085 1174.13 52.9077C1172.98 52.3766 1170.27 52.0545 1167.42 52.0545ZM1089.25 57.4343C1088.52 57.4343 1087.78 57.4549 1087.04 57.4994C1073.46 58.3253 1059.56 59.1151 1045.73 59.8467C1041.89 60.0506 1039.63 60.8062 1040.71 61.5344C1041.79 62.2625 1045.77 62.6874 1049.63 62.4853C1063.64 61.7451 1077.71 60.945 1091.46 60.1089C1095.26 59.8776 1097.36 59.1048 1096.13 58.3852C1095.16 57.8044 1092.31 57.4343 1089.25 57.4343ZM392.911 57.5851C389.979 57.5851 387.218 57.9244 386.132 58.4761C384.729 59.1854 386.63 59.9735 390.377 60.2391C403.927 61.1985 417.848 62.1066 431.751 62.9393C435.562 63.1672 439.626 62.768 440.83 62.0467C442.034 61.3254 439.925 60.556 436.114 60.3282C422.456 59.5092 408.77 58.6166 395.446 57.6725C394.604 57.6143 393.753 57.5851 392.911 57.5851ZM1009.19 61.6954C1008.63 61.6954 1008.05 61.7091 1007.48 61.7348C993.634 62.3705 979.468 62.9684 965.384 63.5098C961.465 63.6606 958.939 64.3837 959.736 65.1255C960.532 65.8657 964.343 66.3437 968.271 66.1947C982.528 65.6447 996.865 65.0398 1010.89 64.3973C1014.77 64.2192 1017.16 63.479 1016.22 62.744C1015.41 62.1169 1012.45 61.6954 1009.19 61.6954ZM472.103 62.367C468.908 62.367 465.975 62.7714 465.115 63.3848C464.083 64.1164 466.383 64.8668 470.248 65.0604C484.223 65.7646 498.534 66.4157 512.781 66.9931C516.691 67.1507 520.538 66.6812 521.371 65.9411C522.203 65.2009 519.723 64.4727 515.813 64.3151C501.792 63.7463 487.717 63.1072 473.977 62.4133C473.352 62.3825 472.728 62.367 472.103 62.367ZM927.73 64.8617C927.331 64.8617 926.924 64.8685 926.517 64.8823C912.487 65.3329 898.14 65.744 883.866 66.1038C879.901 66.2032 877.122 66.8937 877.647 67.6424C878.172 68.3929 881.811 68.9188 885.776 68.8195C900.222 68.4545 914.741 68.0382 928.933 67.5825C932.871 67.4557 935.523 66.7498 934.862 66.0028C934.256 65.3346 931.196 64.8617 927.73 64.8617ZM553.35 65.6995C549.883 65.6995 546.823 66.1724 546.226 66.8423C545.565 67.5876 548.217 68.2952 552.155 68.4203C566.366 68.8743 580.921 69.2735 595.421 69.6076C599.395 69.695 602.997 69.1638 603.477 68.4134C603.957 67.663 601.133 66.9794 597.168 66.8886C582.894 66.5596 568.556 66.1672 554.572 65.72C554.155 65.7063 553.748 65.6995 553.35 65.6995ZM845.315 66.9708C845.071 66.9708 844.827 66.9725 844.573 66.9777C830.399 67.2501 815.934 67.4831 801.579 67.6681C797.587 67.7195 794.582 68.374 794.853 69.1279C795.125 69.8818 798.564 70.4608 802.565 70.4009C817.084 70.2141 831.702 69.9777 846.04 69.7019C850.013 69.6248 852.91 68.9531 852.511 68.201C852.122 67.4968 848.981 66.9708 845.315 66.9708ZM635.845 67.6304C632.107 67.6304 628.948 68.1736 628.64 68.8915C628.323 69.6453 631.292 70.305 635.275 70.3666C649.622 70.5842 664.294 70.7453 678.894 70.8464C682.886 70.8823 686.244 70.2844 686.389 69.5271C686.534 68.7715 683.42 68.1359 679.419 68.1085C665.027 68.0091 650.554 67.8497 636.415 67.6356C636.234 67.6322 636.035 67.6304 635.845 67.6304ZM762.349 68.0656C762.25 68.0656 762.159 68.0656 762.06 68.0673C757.389 68.1016 752.7 68.1307 747.984 68.1564C738.299 68.2078 728.524 68.2352 718.929 68.2387C714.937 68.2404 711.697 68.8537 711.706 69.6093C711.715 70.3649 714.946 70.9766 718.938 70.9766H718.947C728.678 70.9748 738.58 70.9457 748.401 70.8943C753.162 70.8686 757.905 70.8395 762.621 70.8035C766.612 70.7744 769.726 70.1387 769.572 69.3814C769.428 68.6447 766.223 68.0656 762.349 68.0656Z" fill="#8FB2E5"/>
</svg>
